<?xml version="1.0" encoding="UTF-8"?>
<svg width="293px" height="41px" viewBox="0 0 293 41" version="1.1" xmlns="http://www.w3.org/2000/svg" xmlns:xlink="http://www.w3.org/1999/xlink">
    <title>Group 2 Copy 5</title>
    <g id="Page-1" stroke="none" stroke-width="1" fill="none" fill-rule="evenodd">
        <g id="Mobile" transform="translate(-14.000000, -2209.000000)">
            <g id="Group-2-Copy-5" transform="translate(14.000000, 2209.000000)">
                <polygon id="Path-3" fill="#FFD683" points="6.39412244 24.3009174 0 41 51 41 29.700593 32.9486439 29.700593 9 0 9"></polygon>
                <polygon id="Path-3-Copy" fill="#FFD683" transform="translate(267.500000, 25.000000) scale(-1, 1) translate(-267.500000, -25.000000) " points="248.394122 24.3009174 242 41 293 41 271.700593 32.9486439 271.700593 9 242 9"></polygon>
                <polygon id="Path-4" fill="#FFD683" points="29 33 268 33 268 0 29 0"></polygon>
                <polygon id="Path-5" fill="#5895A6" points="50 41 29 33 50 33"></polygon>
                <polygon id="Path-5-Copy" fill="#5895A6" transform="translate(253.500000, 37.000000) scale(-1, 1) translate(-253.500000, -37.000000) " points="264 41 243 33 264 33"></polygon>
            </g>
        </g>
    </g>
</svg>