<?xml version="1.0" encoding="UTF-8"?>
<svg width="288px" height="107px" viewBox="0 0 288 107" version="1.1" xmlns="http://www.w3.org/2000/svg" xmlns:xlink="http://www.w3.org/1999/xlink">
    <title>Group 8</title>
    <g id="Page-1" stroke="none" stroke-width="1" fill="none" fill-rule="evenodd">
        <g id="Mobile" transform="translate(-16.000000, -490.000000)">
            <g id="Group-8" transform="translate(16.000000, 490.000000)">
                <path d="M40.0083874,51.5701904 C40.7077596,51.1900635 42.2510438,51 44.63824,51 C47.0254363,51 48.6832807,51.1900635 49.6117733,51.5701904 C49.8497139,52.0406369 50.0122367,52.4203065 50.0993418,52.7091991 C50.1864469,52.9980917 50.2457163,53.3540178 50.2771499,53.7769774 C49.9791209,53.8772977 49.7828714,53.9746576 49.6884014,54.0690573 C49.5939314,54.1634569 49.5186219,54.3374535 49.4624731,54.5910471 C49.735943,54.9818914 49.9211593,55.2782346 50.0181221,55.4800767 C50.1150849,55.6819187 50.1792913,55.9047847 50.2107412,56.1486745 C50.1430152,56.3819019 50.0788088,56.551862 50.0181221,56.6585547 C49.9574354,56.7652475 49.8475285,56.9013946 49.6884014,57.066996 L52.9559897,84.0379551 L53.4394469,85.1242798 C54.5495837,86.413947 55.2836778,87.4350025 55.641729,88.1874462 C55.9997803,88.93989 56.3050612,90.1030781 56.5575718,91.6770106 L56.5575718,99.2185731 L56.731916,118.141624 L57,134.780395 C56.8610613,135.832556 56.7135852,136.623571 56.5575718,137.15344 C56.4015583,137.683309 56.1725062,138.171097 55.8704155,138.616806 C55.1090444,139.538935 51.6410731,140 45.4665017,140 C39.2919303,140 35.8297006,139.538935 35.0798128,138.616806 C34.7162297,138.13243 34.4653103,137.644641 34.3270546,137.15344 C34.1887989,136.662238 34.0797807,135.871223 34,134.780395 L34,118.141624 L34,99.2185731 L34,91.6770106 C34.3548015,90.103556 34.7147391,88.9403679 35.0798128,88.1874462 C35.4448865,87.4345246 36.1440363,86.4134691 37.1772624,85.1242798 L37.5366344,84.0379551 L40.2040359,57.066996 C40.040541,56.9048 39.9247073,56.7686529 39.8565349,56.6585547 C39.7883625,56.5484566 39.7146556,56.3784965 39.6354143,56.1486745 C39.6981855,55.8840966 39.7718923,55.6612307 39.8565349,55.4800767 C39.9411774,55.2989227 40.1100662,55.0025795 40.3632013,54.5910471 C40.2366749,54.3375787 40.1184035,54.1635821 40.0083874,54.0690573 C39.8983712,53.9745325 39.7008141,53.8771725 39.4157162,53.7769774 C39.4339889,53.241501 39.4765714,52.8492277 39.5434635,52.6001575 C39.6103557,52.3510874 39.7653303,52.007765 40.0083874,51.5701904 Z" id="Path-7-Copy-5" fill="#C45A42" transform="translate(45.500000, 95.500000) rotate(-270.000000) translate(-45.500000, -95.500000) "></path>
                <path d="M238.008387,51.5701904 C238.70776,51.1900635 240.251044,51 242.63824,51 C245.025436,51 246.683281,51.1900635 247.611773,51.5701904 C247.849714,52.0406369 248.012237,52.4203065 248.099342,52.7091991 C248.186447,52.9980917 248.245716,53.3540178 248.27715,53.7769774 C247.979121,53.8772977 247.782871,53.9746576 247.688401,54.0690573 C247.593931,54.1634569 247.518622,54.3374535 247.462473,54.5910471 C247.735943,54.9818914 247.921159,55.2782346 248.018122,55.4800767 C248.115085,55.6819187 248.179291,55.9047847 248.210741,56.1486745 C248.143015,56.3819019 248.078809,56.551862 248.018122,56.6585547 C247.957435,56.7652475 247.847529,56.9013946 247.688401,57.066996 L250.95599,84.0379551 L251.439447,85.1242798 C252.549584,86.413947 253.283678,87.4350025 253.641729,88.1874462 C253.99978,88.93989 254.305061,90.1030781 254.557572,91.6770106 L254.557572,99.2185731 L254.731916,118.141624 L255,134.780395 C254.861061,135.832556 254.713585,136.623571 254.557572,137.15344 C254.401558,137.683309 254.172506,138.171097 253.870415,138.616806 C253.109044,139.538935 249.641073,140 243.466502,140 C237.29193,140 233.829701,139.538935 233.079813,138.616806 C232.71623,138.13243 232.46531,137.644641 232.327055,137.15344 C232.188799,136.662238 232.079781,135.871223 232,134.780395 L232,118.141624 L232,99.2185731 L232,91.6770106 C232.354801,90.103556 232.714739,88.9403679 233.079813,88.1874462 C233.444886,87.4345246 234.144036,86.4134691 235.177262,85.1242798 L235.536634,84.0379551 L238.204036,57.066996 C238.040541,56.9048 237.924707,56.7686529 237.856535,56.6585547 C237.788362,56.5484566 237.714656,56.3784965 237.635414,56.1486745 C237.698185,55.8840966 237.771892,55.6612307 237.856535,55.4800767 C237.941177,55.2989227 238.110066,55.0025795 238.363201,54.5910471 C238.236675,54.3375787 238.118404,54.1635821 238.008387,54.0690573 C237.898371,53.9745325 237.700814,53.8771725 237.415716,53.7769774 C237.433989,53.241501 237.476571,52.8492277 237.543464,52.6001575 C237.610356,52.3510874 237.76533,52.007765 238.008387,51.5701904 Z" id="Path-7-Copy-6" fill="#C45A42" transform="translate(243.500000, 95.500000) scale(-1, 1) rotate(-270.000000) translate(-243.500000, -95.500000) "></path>
                <rect id="Rectangle" stroke="#C45A41" stroke-width="6" x="3" y="3" width="282" height="92" rx="10"></rect>
            </g>
        </g>
    </g>
</svg>