<?xml version="1.0" encoding="UTF-8"?>
<svg width="985px" height="252px" viewBox="0 0 985 252" version="1.1" xmlns="http://www.w3.org/2000/svg" xmlns:xlink="http://www.w3.org/1999/xlink">
    <title>Path 7 Copy 3</title>
    <g id="Page-1" stroke="none" stroke-width="1" fill="none" fill-rule="evenodd">
        <g id="Desktop" transform="translate(-19.000000, -3204.000000)" fill="#C45A42">
            <path d="M451.569793,2844.30413 C459.202072,2840.10138 476.044,2838 502.095576,2838 C528.147152,2838 546.239281,2840.10138 556.371961,2844.30413 C558.968617,2849.50547 560.742235,2853.70316 561.692817,2856.89721 C562.643399,2860.09126 563.290208,2864.02644 563.633245,2868.70276 C560.380841,2869.81192 558.239162,2870.88835 557.208206,2871.93205 C556.177251,2872.97575 555.355396,2874.89949 554.742642,2877.70326 C557.72703,2882.02451 559.748303,2885.30093 560.806463,2887.53253 C561.864623,2889.76414 562.56531,2892.22818 562.908524,2894.92467 C562.169426,2897.50328 561.468739,2899.38238 560.806463,2900.562 C560.144187,2901.74161 558.944768,2903.24688 557.208206,2905.0778 L592.86754,3203.27357 L598.143529,3215.28417 C610.258501,3229.54296 618.269701,3240.83194 622.17713,3249.15109 C626.084559,3257.47024 629.416103,3270.33066 632.171761,3287.73234 L632.171761,3371.11321 L634.074387,3580.32986 L637,3764.29111 C635.483756,3775.92399 633.874343,3784.66959 632.171761,3790.52792 C630.46918,3796.38624 627.969524,3801.77932 624.672795,3806.70716 C616.363919,3816.90239 578.517798,3822 511.134432,3822 C443.751065,3822 405.967603,3816.90239 397.784044,3806.70716 C393.816246,3801.35181 391.077952,3795.95873 389.569161,3790.52792 C388.060371,3785.0971 386.87065,3776.3515 386,3764.29111 L386,3580.32986 L386,3371.11321 L386,3287.73234 C389.871964,3270.33595 393.799978,3257.47553 397.784044,3249.15109 C401.768109,3240.82665 409.397962,3229.53768 420.673602,3215.28417 L424.595445,3203.27357 L453.704913,2905.0778 C451.920686,2903.28453 450.656588,2901.77926 449.91262,2900.562 C449.168651,2899.34473 448.364285,2897.46562 447.499521,2894.92467 C448.184546,2891.99945 448.988912,2889.5354 449.91262,2887.53253 C450.836328,2885.52966 452.679418,2882.25324 455.441892,2877.70326 C454.061104,2874.90087 452.770404,2872.97713 451.569793,2871.93205 C450.369181,2870.88697 448.213232,2869.81054 445.101946,2868.70276 C445.301358,2862.78244 445.766062,2858.44539 446.496059,2855.69163 C447.226056,2852.93786 448.9173,2849.14203 451.569793,2844.30413 Z" id="Path-7-Copy-3" transform="translate(511.500000, 3330.000000) rotate(-270.000000) translate(-511.500000, -3330.000000) "></path>
        </g>
    </g>
</svg>