<?xml version="1.0" encoding="UTF-8"?>
<svg width="230px" height="52px" viewBox="0 0 230 52" version="1.1" xmlns="http://www.w3.org/2000/svg" xmlns:xlink="http://www.w3.org/1999/xlink">
    <title>Group 2</title>
    <g id="Page-1" stroke="none" stroke-width="1" fill="none" fill-rule="evenodd">
        <g id="Desktop" transform="translate(-751.000000, -7908.000000)" fill="#C45A42">
            <g id="Group-2" transform="translate(751.000000, 7908.000000)">
                <path d="M144.833875,0 L97.16775,0 C95.970125,0 95,0.970125 95,2.166125 L95,49.833875 C95,51.029875 95.970125,52 97.16775,52 L122.625,52 L122.625,32.5 L116.125,32.5 L116.125,24.375 L122.625,24.375 L122.625,17.875 C122.625,11.158875 126.877625,7.853625 132.869,7.853625 C135.73875,7.853625 138.2055,8.068125 138.92375,8.162375 L138.92375,15.182375 L134.768625,15.184 C131.5105,15.184 130.75,16.732625 130.75,19.004375 L130.75,24.375 L138.875,24.375 L137.25,32.5 L130.75,32.5 L130.88,52 L144.833875,52 C146.029875,52 147,51.029875 147,49.833875 L147,2.166125 C147,0.970125 146.029875,0 144.833875,0" id="Fill-3"></path>
                <path d="M224.346154,47 L184.653846,47 C183.740923,47 183,46.272 183,45.375 L183,21 L189.615385,21 C188.753731,22.21875 188.462654,24.492125 188.462654,25.935125 C188.462654,34.637 195.685,41.717125 204.561192,41.717125 C213.439038,41.717125 220.661385,34.637 220.661385,25.935125 C220.661385,24.492125 220.453,22.252875 219.384615,21 L226,21 L226,45.375 C226,46.272 225.259077,47 224.346154,47 M203.999187,16 C209.522873,16 214,20.4775633 214,25.9991856 C214,31.5224367 209.522873,36 203.999187,36 C198.477127,36 194,31.5224367 194,25.9991856 C194,20.4775633 198.477127,16 203.999187,16 M217.6,6 L222.4,6 C223.2832,6 224,6.7168 224,7.6 L224,12.4 C224,13.2832 223.2832,14 222.4,14 L217.6,14 C216.7168,14 216,13.2832 216,12.4 L216,7.6 C216,6.7168 216.7168,6 217.6,6 M223.8185,0 L184.1815,0 C180.767375,0 178,2.760875 178,6.166875 L178,45.833125 C178,49.239125 180.767375,52 184.1815,52 L223.8185,52 C227.232625,52 230,49.239125 230,45.833125 L230,6.166875 C230,2.760875 227.232625,0 223.8185,0" id="Fill-23"></path>
                <g id="Group" transform="translate(0.000000, 1.000000)">
                    <path d="M4.94733165,14.7529521 C29.276298,33.3265559 30.2578377,32.2781904 32.7123008,32.9745663 C35.1667639,33.6709421 54.6197693,19.8817402 60.5894306,14.3872002 C66.5590918,8.89266024 66.5590918,0 60.0377374,0 C53.516383,0 7.55741735,0 4.94733165,0 C2.33724596,0 -4.7426208,7.3552955 4.94733165,14.7529521 Z" id="Path-2"></path>
                    <path d="M0,36.9035972 L0,16 L0,16 C8.73258113,22.1716516 14.5060953,26.3216974 17.3205425,28.4501375 C24.9765914,34.2400636 27.8453203,36.9035972 32.5,36.9035972 C36.8609064,36.9035972 40.5548225,33.8509031 47.5275464,28.7687592 C50.5766156,26.5464128 56.3697083,22.2901597 64.9068245,16 L64.9999901,36.9013685 C64.9999967,36.9028543 65,36.9043401 65,36.9058259 L65,50 C65,50.5522847 64.5522847,51 64,51 L1,51 C0.44771525,51 6.76353751e-17,50.5522847 0,50 L0,36.9035972 Z" id="Rectangle"></path>
                </g>
            </g>
        </g>
    </g>
</svg>