<?xml version="1.0" encoding="UTF-8"?>
<svg width="145px" height="64px" viewBox="0 0 145 64" version="1.1" xmlns="http://www.w3.org/2000/svg" xmlns:xlink="http://www.w3.org/1999/xlink">
    <title>Group 4 Copy 2</title>
    <g id="Page-1" stroke="none" stroke-width="1" fill="none" fill-rule="evenodd">
        <g id="Mobile" transform="translate(-162.000000, -2350.000000)">
            <g id="Group-4-Copy-2" transform="translate(162.000000, 2350.000000)">
                <path d="M8.48027193,0 C7.6856385,2.6802444 6.77958021,4.50383072 5.76209704,5.47075896 C4.74461387,6.43768719 2.82391485,7.30040718 0,8.05891892 L0,8.50540358 L0.79651991,9.0899849 L0.79651991,9.93199731 L0,10.5302371 L0,10.8693887 L0.79651991,11.4752898 L0.79651991,12.4546863 L0,12.9854998 L0,13.6024899 L0.79651991,14.2242692 L0.79651991,15.1917031 L0,15.5978639 L0,16.2685136 L0.79651991,16.6884948 L0.79651991,17.6554538 L0,18.1558408 L0,18.8049201 L0.79651991,19.290946 L0.79651991,20.1840269 L0,20.6288102 L0,21.2712529 C3.93046585,21.8831563 6.29595241,22.5972112 7.09645968,23.4134176 C11.7754611,28.1841813 11.2192133,31.1924157 11.2192133,33.0688177 C11.2192133,36.3411105 8.42654196,39.2840912 7.09645968,40.3538428 C5.74090432,41.4440817 3.37541776,42.2311066 0,42.7149173 L0,43.0985857 L0.79651991,43.7315602 L0.79651991,44.5156752 L0,45.0939278 L0,45.687715 L0.79651991,46.2060058 L0.79651991,47.0915576 L0,47.5827641 L0,48.2102775 L0.79651991,48.6681268 L0.79651991,49.6213524 L0,50.0334832 L0,50.6619929 L0.79651991,51.2500976 L0.79651991,52.1407046 L0,52.748735 L0,53.3894954 L0.79651991,54.0042415 L0.79651991,54.5820512 L0,55.150673 L0,55.6669712 C2.85030037,56.157827 4.77099938,56.8901995 5.76209704,57.8640888 C6.75319469,58.837978 7.65925299,60.8832817 8.48027193,64 L136.231349,64 C136.885197,60.8927381 137.699995,58.8474343 138.675744,57.8640888 C139.651492,56.8807432 141.592911,56.1483707 144.5,55.6669712 L144.5,55.150673 L143.573237,54.5820512 L143.573237,54.0042415 L144.5,53.3894954 L144.5,52.748735 L143.573237,52.1407046 L143.573237,51.2500976 L144.5,50.6619929 L144.5,50.0334832 L143.573237,49.6213524 L143.573237,48.6681268 L144.5,48.2102775 L144.5,47.5827641 L143.573237,47.0915576 L143.573237,46.2060058 L144.5,45.687715 L144.5,45.0939278 L143.573237,44.5156752 L143.573237,43.7315602 L144.5,43.0985857 L144.5,42.7149173 C141.638727,42.47163 139.697308,42.0394553 138.675744,41.4183932 C135.038359,39.2070384 133.451632,35.4562609 133.336415,33.0688177 C133.225959,30.7800432 134.176306,26.1929252 137.600919,23.4134176 C138.702613,22.5192534 141.002307,21.8051985 144.5,21.2712529 L144.5,20.6288102 L143.66378,20.1840269 L143.66378,19.290946 L144.5,18.8049201 L144.5,18.1558408 L143.573237,17.6554538 L143.573237,16.6884948 L144.5,16.2685136 L144.5,15.5978639 L143.573237,15.1917031 L143.573237,14.2242692 L144.5,13.6024899 L144.5,12.9854998 L143.573237,12.4546863 L143.573237,11.4752898 L144.5,10.8693887 L144.5,10.5302371 L143.573237,9.93199731 L143.573237,9.0899849 L144.5,8.50540358 C141.546835,7.75227678 139.605416,6.89756789 138.675744,5.94127691 C137.746072,4.98498593 136.931274,3.00456029 136.231349,0 L8.48027193,0 Z" id="Path-6" fill="#C45A42"></path>
                <rect id="Rectangle" stroke="#FFD683" stroke-width="2" x="14.5" y="4" width="115" height="56" rx="16.5"></rect>
                <polygon id="Star" fill="#FFD683" points="44.5 55 42.7366442 55.927051 43.0734152 53.9635255 41.6468305 52.572949 43.6183221 52.2864745 44.5 50.5 45.3816779 52.2864745 47.3531695 52.572949 45.9265848 53.9635255 46.2633558 55.927051"></polygon>
                <polygon id="Star-Copy-3" fill="#FFD683" points="44.5 13.5 42.7366442 14.427051 43.0734152 12.4635255 41.6468305 11.072949 43.6183221 10.7864745 44.5 9 45.3816779 10.7864745 47.3531695 11.072949 45.9265848 12.4635255 46.2633558 14.427051"></polygon>
                <polygon id="Star-Copy-4" fill="#FFD683" points="99.5 13.5 97.7366442 14.427051 98.0734152 12.4635255 96.6468305 11.072949 98.6183221 10.7864745 99.5 9 100.381678 10.7864745 102.35317 11.072949 100.926585 12.4635255 101.263356 14.427051"></polygon>
                <polygon id="Star-Copy-5" fill="#FFD683" points="99.5 55 97.7366442 55.927051 98.0734152 53.9635255 96.6468305 52.572949 98.6183221 52.2864745 99.5 50.5 100.381678 52.2864745 102.35317 52.572949 100.926585 53.9635255 101.263356 55.927051"></polygon>
                <path d="M1.95061108,34.3792493 L1.95061108,34.2000708 C1.7946314,34.2000708 1.66684804,34.1591714 1.56726101,34.0773725 C1.46767398,33.9955737 1.41788046,33.8754721 1.41788046,33.717068 C1.41788046,33.569051 1.51146827,33.2522427 1.6986439,32.7666431 L1.6986439,32.7666431 L1.82462749,32.4316572 L3.67838607,32.4316572 L4.05273732,33.4093484 C4.16312294,33.6923985 4.21831575,33.8624882 4.21831575,33.9196176 C4.21831575,34.0312795 4.17692115,34.1059372 4.09413193,34.1435907 C4.01134271,34.1812441 3.85236341,34.2000708 3.61719404,34.2000708 L3.61719404,34.2000708 L3.61719404,34.3792493 L5.53574418,34.3792493 L5.53574418,34.2000708 C5.36536637,34.1818933 5.23758301,34.1370987 5.15239411,34.065687 C5.0672052,33.9942753 4.99941403,33.8962465 4.94902059,33.7716006 L4.94902059,33.7716006 L4.72584966,33.2184844 L3.09526201,29.0233711 L2.95488029,29.0233711 L1.53666499,32.6887394 C1.44723664,32.916045 1.39205449,33.0594801 1.37111855,33.1190447 L1.36388749,33.1405807 C1.21510687,33.5534703 1.08792343,33.8241856 0.982337184,33.9527266 C0.876750935,34.0812677 0.715971873,34.1637158 0.5,34.2000708 L0.5,34.2000708 L0.5,34.3792493 L1.95061108,34.3792493 Z M3.61719404,32.2563739 L1.89301858,32.2563739 L2.75330655,30.0049575 L3.61719404,32.2563739 Z M7.88895608,34.3790406 C8.25343923,34.3772321 8.53929588,34.3636686 8.74652603,34.3383499 C8.96969697,34.3110836 9.20546626,34.2422686 9.45383392,34.1319051 C9.70220157,34.0215415 9.92057313,33.8605406 10.1089486,33.6489023 C10.2973241,33.4372639 10.4455048,33.171093 10.5534907,32.8503895 C10.6614766,32.529686 10.7154696,32.1758735 10.7154696,31.7889518 C10.7154696,31.2540132 10.6164825,30.7820467 10.4185083,30.3730524 C10.2205341,29.9640581 9.91877337,29.6401086 9.51322618,29.401204 C9.107679,29.1622993 8.5425526,29.042847 7.81784698,29.042847 C7.58507729,29.042847 7.13393605,29.0610246 6.46442324,29.0973796 L6.46442324,29.0973796 L5.66172777,29.1402266 L5.66172777,29.3194051 L5.80570902,29.3194051 C6.05287683,29.3194051 6.21305597,29.342127 6.28624644,29.3875708 C6.35943691,29.4330146 6.40743066,29.5174103 6.43022769,29.6407578 C6.45302472,29.7641053 6.46442324,30.036119 6.46442324,30.4567989 L6.46442324,30.4567989 L6.4643177,33.0763403 C6.46312156,33.4764422 6.45175822,33.7335143 6.43022769,33.8475567 C6.40743066,33.9683074 6.35583738,34.0572474 6.27544785,34.1143768 C6.19505832,34.1715061 6.05047715,34.2000708 5.84170434,34.2000708 L5.84170434,34.2000708 L5.64013059,34.2000708 L5.64013059,34.3792493 L7.88895608,34.3790406 Z M7.92583291,34.1961756 C7.63547073,34.1961756 7.4452955,34.1656634 7.35530722,34.1046388 C7.26531894,34.0436143 7.21132597,33.9377951 7.19332831,33.7871813 C7.17533065,33.6365675 7.16633183,33.3002833 7.16633183,32.7783286 L7.16633183,29.2492918 C7.35350745,29.2363078 7.53828339,29.2298159 7.72065964,29.2298159 C8.09981026,29.2298159 8.41056979,29.2694169 8.65293822,29.348619 C8.89530666,29.4278211 9.11607791,29.5771364 9.31525197,29.7965652 C9.51442603,30.0159939 9.66740611,30.3009915 9.7741922,30.6515581 C9.88097829,31.0021246 9.93437134,31.4007318 9.93437134,31.8473796 C9.93437134,32.4212701 9.84258329,32.8932365 9.6590072,33.263279 C9.47543111,33.6333215 9.24686087,33.8813149 8.9732965,34.0072592 C8.69973213,34.1332035 8.3505776,34.1961756 7.92583291,34.1961756 Z M12.9831743,34.3792493 L12.9831743,34.2000708 C12.7576037,34.1844901 12.5824265,34.1189212 12.4576427,34.003364 C12.332859,33.8878069 12.2584687,33.753423 12.2344718,33.6002125 C12.2104749,33.4470019 12.1984765,33.1587583 12.1984765,32.7354816 L12.1984765,32.7354816 L12.1984765,29.6427054 L14.1458229,34.3792493 L14.3150008,34.3792493 L16.2479491,29.6427054 L16.2478436,33.0763403 C16.2466474,33.4764422 16.2352841,33.7335143 16.2137536,33.8475567 C16.1909565,33.9683074 16.1393632,34.0572474 16.0589737,34.1143768 C15.9785842,34.1715061 15.8352029,34.2000708 15.6288297,34.2000708 L15.6288297,34.2000708 L15.4560522,34.2000708 L15.4560522,34.3792493 L17.7885485,34.3792493 L17.7885485,34.2000708 L17.5725766,34.2000708 C17.3518053,34.2000708 17.2024248,34.1689093 17.124435,34.1065864 C17.0464451,34.0442635 16.9978514,33.9488314 16.9786539,33.8202904 C16.9594564,33.6917493 16.9498577,33.4197356 16.9498577,33.0042493 L16.9498577,33.0042493 L16.9498577,30.4139518 C16.9498577,29.9750944 16.9624561,29.697238 16.9876528,29.5803824 C17.0128495,29.4635269 17.062643,29.3836756 17.1370333,29.3408286 C17.2114236,29.2979816 17.3686032,29.2765581 17.6085719,29.2765581 L17.6085719,29.2765581 L17.7885485,29.2765581 L17.7885485,29.0973796 L16.2911435,29.0973796 L14.5129751,33.4677762 L12.724008,29.0973796 L11.2374016,29.0973796 L11.2374016,29.2765581 L11.3705843,29.2765581 C11.6177521,29.2765581 11.7779312,29.2999292 11.8511217,29.3466714 C11.9243122,29.3934136 11.9723059,29.4778093 11.995103,29.5998584 C12.0179,29.7219075 12.0292985,29.993272 12.0292985,30.4139518 L12.0292985,30.4139518 L12.0292985,32.7121105 C12.0292985,33.1483711 12.0149004,33.4470019 11.9861041,33.6080028 C11.9573079,33.7690038 11.8775183,33.904686 11.7467353,34.0150496 C11.6159523,34.1254131 11.4461745,34.1870869 11.2374016,34.2000708 L11.2374016,34.2000708 L11.2374016,34.3792493 L12.9831743,34.3792493 Z M20.3514147,34.3792493 L20.3514147,34.2000708 L20.2074335,34.2000708 C19.9866622,34.2000708 19.8372817,34.1689093 19.7592918,34.1065864 C19.681302,34.0442635 19.6333082,33.9488314 19.6153106,33.8202904 C19.5973129,33.6917493 19.5883141,33.4197356 19.5883141,33.0042493 L19.5884307,30.3422997 C19.5897528,29.9447184 19.6023123,29.690746 19.6261092,29.5803824 C19.6513059,29.4635269 19.7010994,29.3836756 19.7754897,29.3408286 C19.84988,29.2979816 20.0070595,29.2765581 20.2470283,29.2765581 L20.2470283,29.2765581 L20.3514147,29.2765581 L20.3514147,29.0973796 L18.1197053,29.0973796 L18.1197053,29.2765581 L18.2240917,29.2765581 C18.4712596,29.2765581 18.6320386,29.2999292 18.7064289,29.3466714 C18.7808192,29.3934136 18.828813,29.4778093 18.8504102,29.5998584 C18.8720074,29.7219075 18.882806,29.993272 18.882806,30.4139518 L18.882806,30.4139518 L18.882806,33.0042493 C18.882806,33.4457035 18.8720074,33.7268059 18.8504102,33.8475567 C18.828813,33.9683074 18.7778196,34.0572474 18.6974301,34.1143768 C18.6170406,34.1715061 18.4724594,34.2000708 18.2636866,34.2000708 L18.2636866,34.2000708 L18.1197053,34.2000708 L18.1197053,34.3792493 L20.3514147,34.3792493 Z M24.3288967,34.3792493 L24.3288967,34.2000708 L24.0913276,34.2000708 C23.8729561,34.2000708 23.7241755,34.1689093 23.6449858,34.1065864 C23.5657961,34.0442635 23.5172024,33.9481822 23.4992048,33.8183428 C23.4812071,33.6885033 23.4722083,33.4171388 23.4722083,33.0042493 L23.4722083,29.2765581 L24.2569061,29.2765581 C24.5232714,29.2765581 24.7116469,29.2940864 24.8220325,29.3291431 C24.9324181,29.3641997 25.0356047,29.4589825 25.1315922,29.6134915 C25.2275797,29.7680005 25.3031698,30.0192398 25.3583626,30.3672096 L25.3583626,30.3672096 L25.5131425,30.3672096 L25.4879458,29.0973796 L20.7509627,29.0973796 L20.7257659,30.3672096 L20.8913444,30.3672096 C20.9417378,30.0322238 21.0143284,29.782932 21.109116,29.6193343 C21.2039037,29.4557365 21.3052905,29.3577077 21.4132764,29.3252479 C21.5212623,29.292788 21.7324348,29.2765581 22.0467939,29.2765581 L22.0467939,29.2765581 L22.7702997,29.2765581 L22.7702997,33.0042493 C22.7702997,33.4457035 22.7589012,33.7268059 22.7361041,33.8475567 C22.7133071,33.9683074 22.6617138,34.0572474 22.5813243,34.1143768 C22.5009348,34.1715061 22.3563536,34.2000708 22.1475808,34.2000708 L22.1475808,34.2000708 L21.8956136,34.2000708 L21.8956136,34.3792493 L24.3288967,34.3792493 Z M30.5560857,34.4766289 C31.352782,34.4766289 31.9952983,34.2234419 32.4836347,33.717068 C32.9719711,33.2106941 33.2161393,32.5485127 33.2161393,31.7305241 C33.2161393,30.8865675 32.9611725,30.220491 32.4512389,29.7322946 C31.9413053,29.2440982 31.3059881,29 30.5452871,29 C29.7917853,29 29.1630671,29.246695 28.6591328,29.740085 C28.1551984,30.233475 27.9032312,30.8878659 27.9032312,31.7032578 C27.9032312,32.539424 28.1515989,33.2106941 28.6483342,33.717068 C29.1450695,34.2234419 29.7809867,34.4766289 30.5560857,34.4766289 Z M30.6064792,34.2818697 C29.9801607,34.2818697 29.5104219,34.068933 29.1972627,33.6430595 C28.8841035,33.217186 28.7275239,32.5796742 28.7275239,31.7305241 C28.7275239,30.8943579 28.8841035,30.2626889 29.1972627,29.835517 C29.5104219,29.4083451 29.9609632,29.1947592 30.5488867,29.1947592 C31.1464088,29.1947592 31.6023495,29.4135387 31.9167085,29.8510977 C32.2310676,30.2886568 32.3882471,30.917729 32.3882471,31.7383144 C32.3882471,32.582271 32.2286679,33.217186 31.9095095,33.6430595 C31.590351,34.068933 31.1560076,34.2818697 30.6064792,34.2818697 Z M38.2842793,34.5 L38.2842793,30.1296034 C38.2842793,29.9036827 38.3004771,29.743331 38.3328729,29.6485482 C38.3652687,29.5537653 38.4408589,29.4726157 38.5596434,29.4050992 C38.6784279,29.3375826 38.8410068,29.2947356 39.0473799,29.2765581 L39.0473799,29.2765581 L39.0473799,29.0973796 L37.2764105,29.0973796 L37.2764105,29.2765581 C37.4683855,29.2765581 37.6327641,29.3038244 37.7695463,29.3583569 C37.9063285,29.4128895 37.9969167,29.486898 38.0413109,29.5803824 C38.0857051,29.6738669 38.1079022,29.8374646 38.1079022,30.0711756 L38.1079022,30.0711756 L38.1079022,33.23017 L35.2174787,29.0973796 L33.7776662,29.0973796 L33.7776662,29.2765581 C34.0392321,29.2765581 34.2078101,29.296034 34.2834003,29.3349858 C34.3589905,29.3739377 34.4141833,29.4622285 34.4489787,29.5998584 C34.4837742,29.7374882 34.5011719,30.0088527 34.5011719,30.4139518 L34.5011719,30.4139518 L34.5011719,33.2145892 C34.5011719,33.5339943 34.4897734,33.7365439 34.4669764,33.822238 C34.4441794,33.907932 34.3715888,33.9877833 34.2492048,34.0617918 C34.1268207,34.1358003 33.9492438,34.1818933 33.7164741,34.2000708 L33.7164741,34.2000708 L33.7164741,34.3792493 L35.5378369,34.3792493 L35.5378369,34.2000708 C35.2786707,34.2000708 35.084296,34.1598206 34.9547129,34.0793201 C34.8251298,33.9988196 34.74654,33.9105288 34.7189436,33.8144476 C34.6913472,33.7183664 34.677549,33.5184136 34.677549,33.2145892 L34.677549,33.2145892 L34.677549,29.549221 L38.1294994,34.5 L38.2842793,34.5 Z M43.3956136,34.3792493 L43.5,32.7354816 L43.3272225,32.7354816 C43.2408338,33.125 43.1226491,33.430772 42.9726687,33.6527975 C42.8226882,33.8748229 42.6649088,34.0215415 42.4993303,34.0929533 C42.3337519,34.164365 42.1225794,34.2000708 41.8658128,34.2000708 L41.8658128,34.2000708 L41.5022602,34.2000708 C41.1759027,34.2000708 40.9755288,34.144889 40.9011385,34.0345255 C40.8267481,33.9241619 40.789553,33.556067 40.789553,32.9302408 L40.789553,32.9302408 L40.789553,31.6798867 L41.3258831,31.6798867 C41.534656,31.6798867 41.6828367,31.6948182 41.7704252,31.7246813 C41.8580138,31.7545444 41.9246052,31.8194641 41.9701992,31.9194405 C42.0157933,32.0194169 42.0385903,32.2161237 42.0385903,32.5095609 L42.0385903,32.5095609 L42.2077683,32.5095609 L42.2077683,30.7021955 L42.0385903,30.7021955 C42.0385903,30.9618744 42.0235923,31.1365085 41.9935962,31.2260977 C41.9636001,31.315687 41.9012082,31.3825543 41.8064206,31.4266997 C41.7116329,31.4708451 41.5454545,31.4929178 41.3078855,31.4929178 L41.3078855,31.4929178 L40.789553,31.4929178 L40.789553,29.2765581 L41.4662649,29.2765581 C41.8070205,29.2765581 42.0541883,29.2966832 42.2077683,29.3369334 C42.3613483,29.3771837 42.493931,29.4745633 42.6055165,29.6290722 C42.717102,29.7835812 42.8112897,30.0452077 42.8880797,30.4139518 L42.8880797,30.4139518 L43.0572577,30.4139518 L42.9420727,29.0973796 L39.4541269,29.0973796 L39.4541269,29.2765581 C39.6892963,29.2765581 39.8434762,29.3018768 39.9166667,29.3525142 C39.9898571,29.4031516 40.036651,29.4920916 40.0570484,29.6193343 C40.0774457,29.746577 40.0876444,30.0114495 40.0876444,30.4139518 L40.0875555,33.0762801 C40.0865482,33.4757008 40.0769791,33.726301 40.0588482,33.8280807 C40.0396507,33.9358475 39.9946565,34.0247875 39.9238657,34.0949008 C39.8530749,34.1650142 39.6964953,34.2000708 39.4541269,34.2000708 L39.4541269,34.2000708 L39.35334,34.2000708 L39.35334,34.3792493 L43.3956136,34.3792493 Z" id="ADMITONE" fill="#FFD683" fill-rule="nonzero" transform="translate(22.000000, 31.750000) rotate(-90.000000) translate(-22.000000, -31.750000) "></path>
                <path d="M101.950611,34.3792493 L101.950611,34.2000708 C101.794631,34.2000708 101.666848,34.1591714 101.567261,34.0773725 C101.467674,33.9955737 101.41788,33.8754721 101.41788,33.717068 C101.41788,33.569051 101.511468,33.2522427 101.698644,32.7666431 L101.698644,32.7666431 L101.824627,32.4316572 L103.678386,32.4316572 L104.052737,33.4093484 C104.163123,33.6923985 104.218316,33.8624882 104.218316,33.9196176 C104.218316,34.0312795 104.176921,34.1059372 104.094132,34.1435907 C104.011343,34.1812441 103.852363,34.2000708 103.617194,34.2000708 L103.617194,34.2000708 L103.617194,34.3792493 L105.535744,34.3792493 L105.535744,34.2000708 C105.365366,34.1818933 105.237583,34.1370987 105.152394,34.065687 C105.067205,33.9942753 104.999414,33.8962465 104.949021,33.7716006 L104.949021,33.7716006 L104.72585,33.2184844 L103.095262,29.0233711 L102.95488,29.0233711 L101.536665,32.6887394 C101.447237,32.916045 101.392054,33.0594801 101.371119,33.1190447 L101.363887,33.1405807 C101.215107,33.5534703 101.087923,33.8241856 100.982337,33.9527266 C100.876751,34.0812677 100.715972,34.1637158 100.5,34.2000708 L100.5,34.2000708 L100.5,34.3792493 L101.950611,34.3792493 Z M103.617194,32.2563739 L101.893019,32.2563739 L102.753307,30.0049575 L103.617194,32.2563739 Z M107.888956,34.3790406 C108.253439,34.3772321 108.539296,34.3636686 108.746526,34.3383499 C108.969697,34.3110836 109.205466,34.2422686 109.453834,34.1319051 C109.702202,34.0215415 109.920573,33.8605406 110.108949,33.6489023 C110.297324,33.4372639 110.445505,33.171093 110.553491,32.8503895 C110.661477,32.529686 110.71547,32.1758735 110.71547,31.7889518 C110.71547,31.2540132 110.616483,30.7820467 110.418508,30.3730524 C110.220534,29.9640581 109.918773,29.6401086 109.513226,29.401204 C109.107679,29.1622993 108.542553,29.042847 107.817847,29.042847 C107.585077,29.042847 107.133936,29.0610246 106.464423,29.0973796 L106.464423,29.0973796 L105.661728,29.1402266 L105.661728,29.3194051 L105.805709,29.3194051 C106.052877,29.3194051 106.213056,29.342127 106.286246,29.3875708 C106.359437,29.4330146 106.407431,29.5174103 106.430228,29.6407578 C106.453025,29.7641053 106.464423,30.036119 106.464423,30.4567989 L106.464423,30.4567989 L106.464318,33.0763403 C106.463122,33.4764422 106.451758,33.7335143 106.430228,33.8475567 C106.407431,33.9683074 106.355837,34.0572474 106.275448,34.1143768 C106.195058,34.1715061 106.050477,34.2000708 105.841704,34.2000708 L105.841704,34.2000708 L105.640131,34.2000708 L105.640131,34.3792493 L107.888956,34.3790406 Z M107.925833,34.1961756 C107.635471,34.1961756 107.445295,34.1656634 107.355307,34.1046388 C107.265319,34.0436143 107.211326,33.9377951 107.193328,33.7871813 C107.175331,33.6365675 107.166332,33.3002833 107.166332,32.7783286 L107.166332,29.2492918 C107.353507,29.2363078 107.538283,29.2298159 107.72066,29.2298159 C108.09981,29.2298159 108.41057,29.2694169 108.652938,29.348619 C108.895307,29.4278211 109.116078,29.5771364 109.315252,29.7965652 C109.514426,30.0159939 109.667406,30.3009915 109.774192,30.6515581 C109.880978,31.0021246 109.934371,31.4007318 109.934371,31.8473796 C109.934371,32.4212701 109.842583,32.8932365 109.659007,33.263279 C109.475431,33.6333215 109.246861,33.8813149 108.973297,34.0072592 C108.699732,34.1332035 108.350578,34.1961756 107.925833,34.1961756 Z M112.983174,34.3792493 L112.983174,34.2000708 C112.757604,34.1844901 112.582426,34.1189212 112.457643,34.003364 C112.332859,33.8878069 112.258469,33.753423 112.234472,33.6002125 C112.210475,33.4470019 112.198476,33.1587583 112.198476,32.7354816 L112.198476,32.7354816 L112.198476,29.6427054 L114.145823,34.3792493 L114.315001,34.3792493 L116.247949,29.6427054 L116.247844,33.0763403 C116.246647,33.4764422 116.235284,33.7335143 116.213754,33.8475567 C116.190957,33.9683074 116.139363,34.0572474 116.058974,34.1143768 C115.978584,34.1715061 115.835203,34.2000708 115.62883,34.2000708 L115.62883,34.2000708 L115.456052,34.2000708 L115.456052,34.3792493 L117.788548,34.3792493 L117.788548,34.2000708 L117.572577,34.2000708 C117.351805,34.2000708 117.202425,34.1689093 117.124435,34.1065864 C117.046445,34.0442635 116.997851,33.9488314 116.978654,33.8202904 C116.959456,33.6917493 116.949858,33.4197356 116.949858,33.0042493 L116.949858,33.0042493 L116.949858,30.4139518 C116.949858,29.9750944 116.962456,29.697238 116.987653,29.5803824 C117.012849,29.4635269 117.062643,29.3836756 117.137033,29.3408286 C117.211424,29.2979816 117.368603,29.2765581 117.608572,29.2765581 L117.608572,29.2765581 L117.788548,29.2765581 L117.788548,29.0973796 L116.291143,29.0973796 L114.512975,33.4677762 L112.724008,29.0973796 L111.237402,29.0973796 L111.237402,29.2765581 L111.370584,29.2765581 C111.617752,29.2765581 111.777931,29.2999292 111.851122,29.3466714 C111.924312,29.3934136 111.972306,29.4778093 111.995103,29.5998584 C112.0179,29.7219075 112.029299,29.993272 112.029299,30.4139518 L112.029299,30.4139518 L112.029299,32.7121105 C112.029299,33.1483711 112.0149,33.4470019 111.986104,33.6080028 C111.957308,33.7690038 111.877518,33.904686 111.746735,34.0150496 C111.615952,34.1254131 111.446174,34.1870869 111.237402,34.2000708 L111.237402,34.2000708 L111.237402,34.3792493 L112.983174,34.3792493 Z M120.351415,34.3792493 L120.351415,34.2000708 L120.207433,34.2000708 C119.986662,34.2000708 119.837282,34.1689093 119.759292,34.1065864 C119.681302,34.0442635 119.633308,33.9488314 119.615311,33.8202904 C119.597313,33.6917493 119.588314,33.4197356 119.588314,33.0042493 L119.588431,30.3422997 C119.589753,29.9447184 119.602312,29.690746 119.626109,29.5803824 C119.651306,29.4635269 119.701099,29.3836756 119.77549,29.3408286 C119.84988,29.2979816 120.00706,29.2765581 120.247028,29.2765581 L120.247028,29.2765581 L120.351415,29.2765581 L120.351415,29.0973796 L118.119705,29.0973796 L118.119705,29.2765581 L118.224092,29.2765581 C118.47126,29.2765581 118.632039,29.2999292 118.706429,29.3466714 C118.780819,29.3934136 118.828813,29.4778093 118.85041,29.5998584 C118.872007,29.7219075 118.882806,29.993272 118.882806,30.4139518 L118.882806,30.4139518 L118.882806,33.0042493 C118.882806,33.4457035 118.872007,33.7268059 118.85041,33.8475567 C118.828813,33.9683074 118.77782,34.0572474 118.69743,34.1143768 C118.617041,34.1715061 118.472459,34.2000708 118.263687,34.2000708 L118.263687,34.2000708 L118.119705,34.2000708 L118.119705,34.3792493 L120.351415,34.3792493 Z M124.328897,34.3792493 L124.328897,34.2000708 L124.091328,34.2000708 C123.872956,34.2000708 123.724175,34.1689093 123.644986,34.1065864 C123.565796,34.0442635 123.517202,33.9481822 123.499205,33.8183428 C123.481207,33.6885033 123.472208,33.4171388 123.472208,33.0042493 L123.472208,29.2765581 L124.256906,29.2765581 C124.523271,29.2765581 124.711647,29.2940864 124.822032,29.3291431 C124.932418,29.3641997 125.035605,29.4589825 125.131592,29.6134915 C125.22758,29.7680005 125.30317,30.0192398 125.358363,30.3672096 L125.358363,30.3672096 L125.513142,30.3672096 L125.487946,29.0973796 L120.750963,29.0973796 L120.725766,30.3672096 L120.891344,30.3672096 C120.941738,30.0322238 121.014328,29.782932 121.109116,29.6193343 C121.203904,29.4557365 121.30529,29.3577077 121.413276,29.3252479 C121.521262,29.292788 121.732435,29.2765581 122.046794,29.2765581 L122.046794,29.2765581 L122.7703,29.2765581 L122.7703,33.0042493 C122.7703,33.4457035 122.758901,33.7268059 122.736104,33.8475567 C122.713307,33.9683074 122.661714,34.0572474 122.581324,34.1143768 C122.500935,34.1715061 122.356354,34.2000708 122.147581,34.2000708 L122.147581,34.2000708 L121.895614,34.2000708 L121.895614,34.3792493 L124.328897,34.3792493 Z M130.556086,34.4766289 C131.352782,34.4766289 131.995298,34.2234419 132.483635,33.717068 C132.971971,33.2106941 133.216139,32.5485127 133.216139,31.7305241 C133.216139,30.8865675 132.961172,30.220491 132.451239,29.7322946 C131.941305,29.2440982 131.305988,29 130.545287,29 C129.791785,29 129.163067,29.246695 128.659133,29.740085 C128.155198,30.233475 127.903231,30.8878659 127.903231,31.7032578 C127.903231,32.539424 128.151599,33.2106941 128.648334,33.717068 C129.145069,34.2234419 129.780987,34.4766289 130.556086,34.4766289 Z M130.606479,34.2818697 C129.980161,34.2818697 129.510422,34.068933 129.197263,33.6430595 C128.884103,33.217186 128.727524,32.5796742 128.727524,31.7305241 C128.727524,30.8943579 128.884103,30.2626889 129.197263,29.835517 C129.510422,29.4083451 129.960963,29.1947592 130.548887,29.1947592 C131.146409,29.1947592 131.602349,29.4135387 131.916709,29.8510977 C132.231068,30.2886568 132.388247,30.917729 132.388247,31.7383144 C132.388247,32.582271 132.228668,33.217186 131.909509,33.6430595 C131.590351,34.068933 131.156008,34.2818697 130.606479,34.2818697 Z M138.284279,34.5 L138.284279,30.1296034 C138.284279,29.9036827 138.300477,29.743331 138.332873,29.6485482 C138.365269,29.5537653 138.440859,29.4726157 138.559643,29.4050992 C138.678428,29.3375826 138.841007,29.2947356 139.04738,29.2765581 L139.04738,29.2765581 L139.04738,29.0973796 L137.276411,29.0973796 L137.276411,29.2765581 C137.468386,29.2765581 137.632764,29.3038244 137.769546,29.3583569 C137.906328,29.4128895 137.996917,29.486898 138.041311,29.5803824 C138.085705,29.6738669 138.107902,29.8374646 138.107902,30.0711756 L138.107902,30.0711756 L138.107902,33.23017 L135.217479,29.0973796 L133.777666,29.0973796 L133.777666,29.2765581 C134.039232,29.2765581 134.20781,29.296034 134.2834,29.3349858 C134.35899,29.3739377 134.414183,29.4622285 134.448979,29.5998584 C134.483774,29.7374882 134.501172,30.0088527 134.501172,30.4139518 L134.501172,30.4139518 L134.501172,33.2145892 C134.501172,33.5339943 134.489773,33.7365439 134.466976,33.822238 C134.444179,33.907932 134.371589,33.9877833 134.249205,34.0617918 C134.126821,34.1358003 133.949244,34.1818933 133.716474,34.2000708 L133.716474,34.2000708 L133.716474,34.3792493 L135.537837,34.3792493 L135.537837,34.2000708 C135.278671,34.2000708 135.084296,34.1598206 134.954713,34.0793201 C134.82513,33.9988196 134.74654,33.9105288 134.718944,33.8144476 C134.691347,33.7183664 134.677549,33.5184136 134.677549,33.2145892 L134.677549,33.2145892 L134.677549,29.549221 L138.129499,34.5 L138.284279,34.5 Z M143.395614,34.3792493 L143.5,32.7354816 L143.327223,32.7354816 C143.240834,33.125 143.122649,33.430772 142.972669,33.6527975 C142.822688,33.8748229 142.664909,34.0215415 142.49933,34.0929533 C142.333752,34.164365 142.122579,34.2000708 141.865813,34.2000708 L141.865813,34.2000708 L141.50226,34.2000708 C141.175903,34.2000708 140.975529,34.144889 140.901138,34.0345255 C140.826748,33.9241619 140.789553,33.556067 140.789553,32.9302408 L140.789553,32.9302408 L140.789553,31.6798867 L141.325883,31.6798867 C141.534656,31.6798867 141.682837,31.6948182 141.770425,31.7246813 C141.858014,31.7545444 141.924605,31.8194641 141.970199,31.9194405 C142.015793,32.0194169 142.03859,32.2161237 142.03859,32.5095609 L142.03859,32.5095609 L142.207768,32.5095609 L142.207768,30.7021955 L142.03859,30.7021955 C142.03859,30.9618744 142.023592,31.1365085 141.993596,31.2260977 C141.9636,31.315687 141.901208,31.3825543 141.806421,31.4266997 C141.711633,31.4708451 141.545455,31.4929178 141.307885,31.4929178 L141.307885,31.4929178 L140.789553,31.4929178 L140.789553,29.2765581 L141.466265,29.2765581 C141.80702,29.2765581 142.054188,29.2966832 142.207768,29.3369334 C142.361348,29.3771837 142.493931,29.4745633 142.605516,29.6290722 C142.717102,29.7835812 142.81129,30.0452077 142.88808,30.4139518 L142.88808,30.4139518 L143.057258,30.4139518 L142.942073,29.0973796 L139.454127,29.0973796 L139.454127,29.2765581 C139.689296,29.2765581 139.843476,29.3018768 139.916667,29.3525142 C139.989857,29.4031516 140.036651,29.4920916 140.057048,29.6193343 C140.077446,29.746577 140.087644,30.0114495 140.087644,30.4139518 L140.087556,33.0762801 C140.086548,33.4757008 140.076979,33.726301 140.058848,33.8280807 C140.039651,33.9358475 139.994657,34.0247875 139.923866,34.0949008 C139.853075,34.1650142 139.696495,34.2000708 139.454127,34.2000708 L139.454127,34.2000708 L139.35334,34.2000708 L139.35334,34.3792493 L143.395614,34.3792493 Z" id="ADMITONE" fill="#FFD683" fill-rule="nonzero" transform="translate(122.000000, 31.750000) scale(-1, -1) rotate(-90.000000) translate(-122.000000, -31.750000) "></path>
                <g id="Group-3" transform="translate(34.000000, 19.500000)" fill="#F0C164" fill-rule="nonzero">
                    <path d="M10.6883853,25.0093889 L10.6883853,23.0644661 L10.3600171,23.0644661 C9.72829917,23.0644661 9.31392976,22.8512839 9.11690883,22.4249194 C8.9198879,21.998555 8.82137744,21.2421962 8.82137744,20.1558429 L8.82137744,20.1558429 L8.82137744,3.36993313 L9.91906546,3.36993313 C10.7134038,3.36993313 11.2919573,3.68824632 11.654726,4.32487268 C12.0174947,4.96149904 12.2989532,6.1909472 12.4991014,8.01321716 L12.4991014,8.01321716 L13.5592616,8.01321716 L13.5592616,1.24979213 L0.827956989,1.24979213 L0.827956989,8.01321716 L1.88811721,8.01321716 C1.93189964,6.96190757 2.05542864,6.05369289 2.25870419,5.28857314 C2.46197975,4.52345338 2.71372872,4.01240011 3.01395108,3.75541332 C3.31417344,3.49842653 3.78327089,3.36993313 4.42124341,3.36993313 L4.42124341,3.36993313 L5.49078559,3.36993313 L5.49078559,20.1558429 C5.49078559,21.2188337 5.39540244,21.969352 5.20463614,22.4073976 C5.01386985,22.8454433 4.59950044,23.0644661 3.96152792,23.0644661 L3.96152792,23.0644661 L3.66130555,23.0644661 L3.66130555,25.0093889 L10.6883853,25.0093889 Z M21.3556612,25.0093889 L21.3556612,23.0644661 L21.1586402,23.0644661 C20.5394316,23.0644661 20.1313168,22.8512839 19.9342959,22.4249194 C19.737275,21.998555 19.6387645,21.2421962 19.6387645,20.1558429 L19.6387645,20.1558429 L19.6387645,6.10333807 C19.6387645,5.04034726 19.7341477,4.28982903 19.9249139,3.85178336 C20.1156802,3.4137377 20.5269223,3.19471487 21.1586402,3.19471487 L21.1586402,3.19471487 L21.3556612,3.19471487 L21.3556612,1.24979213 L14.6288038,1.24979213 L14.6288038,3.19471487 C15.3293227,3.19471487 15.7843472,3.39621587 15.9938774,3.79921788 C16.2034076,4.20221989 16.3081727,4.97025995 16.3081727,6.10333807 L16.3081727,6.10333807 L16.3081727,20.1558429 C16.3081727,21.3239647 16.1971529,22.1007657 15.9751135,22.4862458 C15.753074,22.871726 15.3043041,23.0644661 14.6288038,23.0644661 L14.6288038,23.0644661 L14.6288038,25.0093889 L21.3556612,25.0093889 Z M29.3209358,25.5 C31.053469,25.5 32.4482521,24.5070965 33.505285,22.5212895 C33.742961,23.0936692 33.921218,23.8529483 34.040056,24.7991269 L34.040056,24.7991269 L35.0814524,24.7991269 L35.0814524,15.8805173 L34.040056,15.8805173 C33.7210698,18.3452542 33.198808,20.1792054 32.4732706,21.3823708 C31.7477332,22.5855362 30.9221217,23.1871189 29.9964361,23.1871189 C29.2959172,23.1871189 28.6501264,22.8074793 28.0590636,22.0482002 C27.4680009,21.288921 27.0723953,20.2054881 26.8722471,18.7979014 C26.6720989,17.3903146 26.5720247,15.4833559 26.5720247,13.077025 C26.5720247,9.65442824 26.8503559,7.13712583 27.4070182,5.52511779 C27.9636805,3.91310976 28.7924193,3.10710574 29.8932346,3.10710574 C30.8501934,3.10710574 31.6773686,3.71744936 32.3747601,4.93813661 C33.0721517,6.15882385 33.5740859,7.96065168 33.8805629,10.3436201 L33.8805629,10.3436201 L34.9125773,10.3436201 L34.78123,1.56518501 L33.7492156,1.56518501 C33.6303776,2.38287024 33.4990303,3.08958391 33.3551738,3.68532601 C32.279377,1.78128753 30.9690314,0.829268293 29.4241372,0.829268293 C27.3601084,0.829268293 25.7432859,2.09668041 24.5736696,4.63150464 C23.4040533,7.16632888 22.8192452,10.0632709 22.8192452,13.3223306 C22.8192452,16.6281152 23.410308,19.4841729 24.5924335,21.8905037 C25.7745591,24.2968346 27.3507265,25.5 29.3209358,25.5 Z M43.3657132,25.0093889 L43.3657132,23.0644661 C42.7089768,23.0644661 42.2820981,22.8542042 42.0850772,22.4336804 C41.8880563,22.0131565 41.7895458,21.2538774 41.7895458,20.1558429 L41.7895458,20.1558429 L41.7895458,15.6176899 L43.0842548,13.3748961 L45.5047976,19.9631028 C45.8925848,21.0144124 46.0864784,21.691923 46.0864784,21.9956347 C46.0864784,22.708189 45.6111263,23.0644661 44.6604222,23.0644661 L44.6604222,23.0644661 L44.6604222,25.0093889 L51.9689604,25.0093889 L51.9689604,23.0644661 C51.3247332,23.0644661 50.8102897,22.804559 50.4256298,22.2847448 C50.0409699,21.7649307 49.5546722,20.6873383 48.9667367,19.0519678 L48.9667367,19.0519678 L45.4672698,9.34487597 L46.6212495,7.34738775 C47.6532639,5.56016145 48.4507295,4.42124272 49.0136465,3.93063158 C49.5765634,3.44002044 50.1144618,3.19471487 50.6273417,3.19471487 L50.6273417,3.19471487 L50.6273417,1.24979213 L44.9981723,1.24979213 L44.9981723,3.19471487 C45.7549829,3.19471487 46.1333882,3.55683262 46.1333882,4.28106811 C46.1333882,4.9352163 45.8331658,5.77626397 45.2327211,6.80421113 L45.2327211,6.80421113 L41.7895458,12.7265885 L41.7895458,6.10333807 C41.7895458,5.04034726 41.884929,4.28982903 42.0756953,3.85178336 C42.2664616,3.4137377 42.6777037,3.19471487 43.3094215,3.19471487 L43.3094215,3.19471487 L43.5158244,3.19471487 L43.5158244,1.24979213 L36.7326754,1.24979213 L36.7326754,3.19471487 L36.9296963,3.19471487 C37.5551596,3.19471487 37.9664017,3.40789709 38.1634226,3.83426154 C38.3604435,4.26062598 38.458954,5.01698483 38.458954,6.10333807 L38.458954,6.10333807 L38.458954,20.1558429 C38.458954,21.2188337 38.3635708,21.969352 38.1728045,22.4073976 C37.9820382,22.8454433 37.5676688,23.0644661 36.9296963,23.0644661 L36.9296963,23.0644661 L36.7326754,23.0644661 L36.7326754,25.0093889 L43.3657132,25.0093889 Z M63.0115142,25.0093889 L63.0959517,17.2121761 L62.0451735,17.2121761 C61.9075716,18.3102105 61.6839684,19.3439983 61.3743641,20.3135394 C61.0647598,21.2830804 60.7145004,21.960591 60.3235859,22.3460712 C59.9326713,22.7315514 59.321281,22.9242915 58.4894148,22.9242915 C57.8764609,22.9242915 57.4198727,22.8103996 57.1196503,22.5826159 C56.8194279,22.3548321 56.6349163,22.0686423 56.5661153,21.7240464 C56.4973144,21.3794505 56.4629139,20.6464541 56.4629139,19.5250572 L56.4629139,19.5250572 L56.4629139,13.6552453 L57.6825672,13.6552453 C58.3142851,13.6552453 58.7067633,13.9297539 58.8600018,14.4787711 C59.0132403,15.0277884 59.0898596,15.6410523 59.0898596,16.3185629 C59.0898596,16.3886502 59.0867323,16.4996218 59.0804776,16.6514776 L59.0804776,16.6514776 L60.1406379,16.6514776 L60.1406379,8.59143743 L59.0804776,8.59143743 C59.0554591,9.7595592 58.950694,10.5422008 58.7661823,10.9393622 C58.5816707,11.3365236 58.2079564,11.5351043 57.6450394,11.5351043 L57.6450394,11.5351043 L56.4629139,11.5351043 L56.4629139,3.33488948 L58.836547,3.33488948 C59.3932093,3.33488948 59.7888148,3.42541892 60.0233635,3.60647779 C60.2579122,3.78753667 60.4908973,4.19637928 60.7223187,4.83300565 C60.9537401,5.46963201 61.1632703,6.3252812 61.3509093,7.39995323 L61.3509093,7.39995323 L62.4016875,7.39995323 L62.2140486,1.24979213 L51.3778976,1.24979213 L51.3778976,3.15967122 L51.6124463,3.15967122 C52.2316549,3.15967122 52.6397697,3.37285344 52.8367906,3.79921788 C53.0338116,4.22558233 53.132322,4.98194117 53.132322,6.06829442 L53.132322,6.06829442 L53.132322,20.1558429 C53.132322,21.2188337 53.0369389,21.969352 52.8461726,22.4073976 C52.6554063,22.8454433 52.2441642,23.0644661 51.6124463,23.0644661 L51.6124463,23.0644661 L51.3778976,23.0644661 L51.3778976,25.0093889 L63.0115142,25.0093889 Z M74.1291236,25.0093889 L74.1291236,23.0644661 L73.8007554,23.0644661 C73.1690375,23.0644661 72.7546681,22.8512839 72.5576472,22.4249194 C72.3606263,21.998555 72.2621158,21.2421962 72.2621158,20.1558429 L72.2621158,20.1558429 L72.2621158,3.36993313 L73.3598038,3.36993313 C74.1541422,3.36993313 74.7326957,3.68824632 75.0954644,4.32487268 C75.4582331,4.96149904 75.7396915,6.1909472 75.9398398,8.01321716 L75.9398398,8.01321716 L77,8.01321716 L77,1.24979213 L64.2686954,1.24979213 L64.2686954,8.01321716 L65.3288556,8.01321716 C65.372638,6.96190757 65.496167,6.05369289 65.6994426,5.28857314 C65.9027181,4.52345338 66.1544671,4.01240011 66.4546895,3.75541332 C66.7549118,3.49842653 67.2240093,3.36993313 67.8619818,3.36993313 L67.8619818,3.36993313 L68.931524,3.36993313 L68.931524,20.1558429 C68.931524,21.2188337 68.8361408,21.969352 68.6453745,22.4073976 C68.4546082,22.8454433 68.0402388,23.0644661 67.4022663,23.0644661 L67.4022663,23.0644661 L67.1020439,23.0644661 L67.1020439,25.0093889 L74.1291236,25.0093889 Z" id="TICKET"></path>
                    <path d="M9.86042828,24.1801206 L9.86042828,22.2351978 L9.53206007,22.2351978 C8.90034218,22.2351978 8.48597277,22.0220156 8.28895184,21.5956512 C8.09193091,21.1692867 7.99342045,20.4129279 7.99342045,19.3265746 L7.99342045,19.3265746 L7.99342045,2.54066484 L9.09110847,2.54066484 C9.88544681,2.54066484 10.4640003,2.85897802 10.826769,3.49560439 C11.1895377,4.13223075 11.4709962,5.36167891 11.6711444,7.18394886 L11.6711444,7.18394886 L12.7313046,7.18394886 L12.7313046,0.420523836 L0,0.420523836 L0,7.18394886 L1.06016022,7.18394886 C1.10394265,6.13263927 1.22747165,5.2244246 1.43074721,4.45930484 C1.63402276,3.69418509 1.88577173,3.18313181 2.18599409,2.92614502 C2.48621645,2.66915824 2.9553139,2.54066484 3.59328642,2.54066484 L3.59328642,2.54066484 L4.6628286,2.54066484 L4.6628286,19.3265746 C4.6628286,20.3895654 4.56744545,21.1400837 4.37667916,21.5781293 C4.18591286,22.016175 3.77154345,22.2351978 3.13357093,22.2351978 L3.13357093,22.2351978 L2.83334856,22.2351978 L2.83334856,24.1801206 L9.86042828,24.1801206 Z M20.5277042,24.1801206 L20.5277042,22.2351978 L20.3306832,22.2351978 C19.7114746,22.2351978 19.3033598,22.0220156 19.1063389,21.5956512 C18.909318,21.1692867 18.8108075,20.4129279 18.8108075,19.3265746 L18.8108075,19.3265746 L18.8108075,5.27406978 C18.8108075,4.21107897 18.9061907,3.46056073 19.096957,3.02251507 C19.2877233,2.58446941 19.6989653,2.36544658 20.3306832,2.36544658 L20.3306832,2.36544658 L20.5277042,2.36544658 L20.5277042,0.420523836 L13.8008468,0.420523836 L13.8008468,2.36544658 C14.5013657,2.36544658 14.9563902,2.56694758 15.1659204,2.96994959 C15.3754506,3.3729516 15.4802157,4.14099166 15.4802157,5.27406978 L15.4802157,5.27406978 L15.4802157,19.3265746 C15.4802157,20.4946964 15.3691959,21.2714974 15.1471565,21.6569775 C14.925117,22.0424577 14.4763471,22.2351978 13.8008468,22.2351978 L13.8008468,22.2351978 L13.8008468,24.1801206 L20.5277042,24.1801206 Z M28.4929788,24.6707317 C30.225512,24.6707317 31.6202951,23.6778282 32.677328,21.6920212 C32.915004,22.2644009 33.093261,23.02368 33.2120991,23.9698586 L33.2120991,23.9698586 L34.2534954,23.9698586 L34.2534954,15.051249 L33.2120991,15.051249 C32.8931128,17.5159859 32.370851,19.3499371 31.6453136,20.5531025 C30.9197762,21.7562679 30.0941647,22.3578506 29.1684791,22.3578506 C28.4679602,22.3578506 27.8221694,21.978211 27.2311066,21.2189319 C26.6400439,20.4596527 26.2444384,19.3762198 26.0442901,17.9686331 C25.8441419,16.5610463 25.7440677,14.6540876 25.7440677,12.2477567 C25.7440677,8.82515995 26.0223989,6.30785754 26.5790612,4.6958495 C27.1357235,3.08384146 27.9644623,2.27783744 29.0652777,2.27783744 C30.0222364,2.27783744 30.8494116,2.88818107 31.5468031,4.10886831 C32.2441947,5.32955556 32.7461289,7.13138338 33.0526059,9.51435179 L33.0526059,9.51435179 L34.0846203,9.51435179 L33.953273,0.735916713 L32.9212586,0.735916713 C32.8024206,1.55360195 32.6710733,2.26031562 32.5272168,2.85605772 C31.45142,0.95201924 30.1410745,0 28.5961802,0 C26.5321515,0 24.9153289,1.26741212 23.7457126,3.80223635 C22.5760963,6.33706058 21.9912882,9.23400256 21.9912882,12.4930623 C21.9912882,15.7988469 22.582351,18.6549046 23.7644765,21.0612354 C24.9466021,23.4675663 26.5227695,24.6707317 28.4929788,24.6707317 Z M42.5377563,24.1801206 L42.5377563,22.2351978 C41.8810198,22.2351978 41.4541412,22.0249359 41.2571202,21.6044121 C41.0600993,21.1838882 40.9615888,20.4246091 40.9615888,19.3265746 L40.9615888,19.3265746 L40.9615888,14.7884216 L42.2562978,12.5456278 L44.6768406,19.1338345 C45.0646278,20.1851441 45.2585214,20.8626547 45.2585214,21.1663664 C45.2585214,21.8789207 44.7831694,22.2351978 43.8324652,22.2351978 L43.8324652,22.2351978 L43.8324652,24.1801206 L51.1410034,24.1801206 L51.1410034,22.2351978 C50.4967762,22.2351978 49.9823327,21.9752907 49.5976728,21.4554765 C49.2130129,20.9356624 48.7267152,19.85807 48.1387797,18.2226996 L48.1387797,18.2226996 L44.6393128,8.51560768 L45.7932925,6.51811946 C46.8253069,4.73089315 47.6227725,3.59197443 48.1856895,3.10136329 C48.7486064,2.61075215 49.2865048,2.36544658 49.7993847,2.36544658 L49.7993847,2.36544658 L49.7993847,0.420523836 L44.1702154,0.420523836 L44.1702154,2.36544658 C44.9270259,2.36544658 45.3054312,2.72756432 45.3054312,3.45179982 C45.3054312,4.10594801 45.0052088,4.94699568 44.4047641,5.97494284 L44.4047641,5.97494284 L40.9615888,11.8973202 L40.9615888,5.27406978 C40.9615888,4.21107897 41.056972,3.46056073 41.2477383,3.02251507 C41.4385046,2.58446941 41.8497467,2.36544658 42.4814646,2.36544658 L42.4814646,2.36544658 L42.6878674,2.36544658 L42.6878674,0.420523836 L35.9047184,0.420523836 L35.9047184,2.36544658 L36.1017393,2.36544658 C36.7272026,2.36544658 37.1384447,2.5786288 37.3354656,3.00499324 C37.5324865,3.43135769 37.630997,4.18771653 37.630997,5.27406978 L37.630997,5.27406978 L37.630997,19.3265746 C37.630997,20.3895654 37.5356138,21.1400837 37.3448475,21.5781293 C37.1540812,22.016175 36.7397118,22.2351978 36.1017393,22.2351978 L36.1017393,22.2351978 L35.9047184,22.2351978 L35.9047184,24.1801206 L42.5377563,24.1801206 Z M62.1835572,24.1801206 L62.2679948,16.3829078 L61.2172165,16.3829078 C61.0796146,17.4809422 60.8560115,18.51473 60.5464071,19.4842711 C60.2368028,20.4538121 59.8865434,21.1313228 59.4956289,21.5168029 C59.1047143,21.9022831 58.493324,22.0950232 57.6614579,22.0950232 C57.0485039,22.0950232 56.5919157,21.9811313 56.2916933,21.7533476 C55.991471,21.5255639 55.8069593,21.239374 55.7381583,20.8947781 C55.6693574,20.5501822 55.6349569,19.8171858 55.6349569,18.6957889 L55.6349569,18.6957889 L55.6349569,12.825977 L56.8546103,12.825977 C57.4863281,12.825977 57.8788063,13.1004856 58.0320448,13.6495028 C58.1852833,14.1985201 58.2619026,14.811784 58.2619026,15.4892946 C58.2619026,15.5593819 58.2587753,15.6703535 58.2525206,15.8222093 L58.2525206,15.8222093 L59.3126809,15.8222093 L59.3126809,7.76216914 L58.2525206,7.76216914 C58.2275021,8.9302909 58.122737,9.71293249 57.9382253,10.1100939 C57.7537137,10.5072553 57.3799994,10.705836 56.8170825,10.705836 L56.8170825,10.705836 L55.6349569,10.705836 L55.6349569,2.50562119 L58.00859,2.50562119 C58.5652523,2.50562119 58.9608578,2.59615063 59.1954065,2.7772095 C59.4299552,2.95826837 59.6629403,3.36711099 59.8943617,4.00373735 C60.1257831,4.64036372 60.3353133,5.49601291 60.5229523,6.57068494 L60.5229523,6.57068494 L61.5737305,6.57068494 L61.3860916,0.420523836 L50.5499406,0.420523836 L50.5499406,2.33040292 L50.7844893,2.33040292 C51.4036979,2.33040292 51.8118127,2.54358515 52.0088337,2.96994959 C52.2058546,3.39631404 52.304365,4.15267288 52.304365,5.23902612 L52.304365,5.23902612 L52.304365,19.3265746 C52.304365,20.3895654 52.2089819,21.1400837 52.0182156,21.5781293 C51.8274493,22.016175 51.4162072,22.2351978 50.7844893,22.2351978 L50.7844893,22.2351978 L50.5499406,22.2351978 L50.5499406,24.1801206 L62.1835572,24.1801206 Z M73.3011667,24.1801206 L73.3011667,22.2351978 L72.9727984,22.2351978 C72.3410805,22.2351978 71.9267111,22.0220156 71.7296902,21.5956512 C71.5326693,21.1692867 71.4341588,20.4129279 71.4341588,19.3265746 L71.4341588,19.3265746 L71.4341588,2.54066484 L72.5318468,2.54066484 C73.3261852,2.54066484 73.9047387,2.85897802 74.2675074,3.49560439 C74.6302761,4.13223075 74.9117345,5.36167891 75.1118828,7.18394886 L75.1118828,7.18394886 L76.172043,7.18394886 L76.172043,0.420523836 L63.4407384,0.420523836 L63.4407384,7.18394886 L64.5008986,7.18394886 C64.544681,6.13263927 64.66821,5.2244246 64.8714856,4.45930484 C65.0747611,3.69418509 65.3265101,3.18313181 65.6267325,2.92614502 C65.9269548,2.66915824 66.3960523,2.54066484 67.0340248,2.54066484 L67.0340248,2.54066484 L68.103567,2.54066484 L68.103567,19.3265746 C68.103567,20.3895654 68.0081838,21.1400837 67.8174175,21.5781293 C67.6266512,22.016175 67.2122818,22.2351978 66.5743093,22.2351978 L66.5743093,22.2351978 L66.2740869,22.2351978 L66.2740869,24.1801206 L73.3011667,24.1801206 Z" id="TICKET" stroke="#C45A42" stroke-width="1.5"></path>
                </g>
                <path d="M53.0112032,55.4254144 L53.0112032,51.0435083 L52.628453,51.0435083 L51.5,51.410221 L51.6253837,51.808011 L52.4964702,51.5531768 L52.4964702,55.4254144 L53.0112032,55.4254144 Z M57.2214549,55.4254144 L57.2214549,54.9779006 L54.7731737,54.9779006 L56.007213,53.9461326 C56.8189073,53.2810773 57.1752609,52.8895028 57.1752609,52.2555249 L57.1752609,52.2430939 C57.1752609,51.5345304 56.5747391,51.0124309 55.7432474,51.0124309 C54.9315531,51.0124309 54.4960098,51.3542818 54.080264,51.9385359 L54.4630141,52.1995856 C54.832566,51.714779 55.1757213,51.4537293 55.7036525,51.4537293 C56.2051872,51.4537293 56.6341314,51.7769337 56.6341314,52.2866022 C56.6341314,52.7216851 56.3767649,53.0573204 55.6706568,53.6540055 L53.9944751,55.0462707 L53.9944751,55.4254144 L57.2214549,55.4254144 Z M59.6301412,55.5 C60.5936157,55.5 61.2799263,54.9219613 61.2799263,54.070442 L61.2799263,54.058011 C61.2799263,53.2251381 60.5804174,52.7279006 59.6829343,52.7279006 C59.3001842,52.7279006 59.0428177,52.8087017 58.7722529,52.9205801 L58.87124,51.5283149 L61.075353,51.5283149 L61.075353,51.0745856 L58.4158993,51.0745856 L58.2839165,53.1940608 L58.633671,53.4116022 C58.9042357,53.2748619 59.2143953,53.1629834 59.6037446,53.1629834 C60.276857,53.1629834 60.7519951,53.5359116 60.7519951,54.0766575 L60.7519951,54.0890884 C60.7519951,54.6360497 60.2966544,55.0524862 59.6367403,55.0524862 C59.1682014,55.0524862 58.7260589,54.8225138 58.3235114,54.4558011 L57.980356,54.8100829 C58.3961019,55.2016575 58.9702271,55.5 59.6301412,55.5 Z M63.7480049,55.4875691 C64.7312769,55.4875691 65.4835789,54.9903315 65.4835789,54.2506906 L65.4835789,54.2382597 C65.4835789,53.7223757 65.0810313,53.3680939 64.5333026,53.1754144 C64.9622468,52.9889503 65.3251995,52.6781768 65.3251995,52.1747238 L65.3251995,52.1622928 C65.3251995,51.4910221 64.5926949,51.0124309 63.7480049,51.0124309 C62.9033149,51.0124309 62.1708103,51.4910221 62.1708103,52.1622928 L62.1708103,52.1747238 C62.1708103,52.6781768 62.533763,52.9889503 62.9627072,53.1754144 C62.4083794,53.3618785 62.0124309,53.7285912 62.0124309,54.2444751 L62.0124309,54.2569061 C62.0124309,54.984116 62.764733,55.4875691 63.7480049,55.4875691 Z M63.7480049,53.0013812 C63.1606814,53.0013812 62.6921424,52.6781768 62.6921424,52.2058011 L62.6921424,52.1933702 C62.6921424,51.7582873 63.1474831,51.4412983 63.7480049,51.4412983 C64.3485267,51.4412983 64.8038674,51.7645028 64.8038674,52.1933702 L64.8038674,52.2058011 C64.8038674,52.6781768 64.3353284,53.0013812 63.7480049,53.0013812 Z M63.7480049,55.0587017 C62.9891037,55.0587017 62.5403622,54.679558 62.5403622,54.2444751 L62.5403622,54.2320442 C62.5403622,53.7472376 63.0748926,53.4053867 63.7480049,53.4053867 C64.4211172,53.4053867 64.9556476,53.7472376 64.9556476,54.2320442 L64.9556476,54.2444751 C64.9556476,54.6857735 64.5069061,55.0587017 63.7480049,55.0587017 Z M67.740485,55.5 C68.8821363,55.5 69.6608349,54.5241713 69.6608349,53.144337 L69.6608349,53.1319061 C69.6608349,52.2617403 69.4364641,51.7769337 69.0867096,51.4475138 C68.7897483,51.1678177 68.400399,51 67.8724678,51 C66.8891958,51 66.2094843,51.6526243 66.2094843,52.4792818 L66.2094843,52.4917127 C66.2094843,53.2748619 66.8693984,53.8404696 67.8196746,53.8404696 C68.4135973,53.8404696 68.8359423,53.5732044 69.1263045,53.1505525 L69.1263045,53.2375691 C69.1263045,54.176105 68.6445672,55.0524862 67.7536832,55.0524862 C67.3445365,55.0524862 66.9947821,54.8970994 66.6186311,54.586326 L66.3150706,54.9654696 C66.7044199,55.2700276 67.1399632,55.5 67.740485,55.5 Z M67.8790669,53.4178177 C67.2059546,53.4178177 66.7440147,53.0200276 66.7440147,52.4668508 L66.7440147,52.4544199 C66.7440147,51.913674 67.1597606,51.4350829 67.8526703,51.4350829 C68.5455801,51.4350829 69.0273174,51.8701657 69.0273174,52.4233425 L69.0273174,52.4357735 C69.0273174,52.933011 68.585175,53.4178177 67.8790669,53.4178177 Z M72.1421117,55.4875691 C73.1253837,55.4875691 73.8776857,54.9903315 73.8776857,54.2506906 L73.8776857,54.2382597 C73.8776857,53.7223757 73.4751381,53.3680939 72.9274095,53.1754144 C73.3563536,52.9889503 73.7193063,52.6781768 73.7193063,52.1747238 L73.7193063,52.1622928 C73.7193063,51.4910221 72.9868017,51.0124309 72.1421117,51.0124309 C71.2974217,51.0124309 70.5649171,51.4910221 70.5649171,52.1622928 L70.5649171,52.1747238 C70.5649171,52.6781768 70.9278699,52.9889503 71.356814,53.1754144 C70.8024862,53.3618785 70.4065378,53.7285912 70.4065378,54.2444751 L70.4065378,54.2569061 C70.4065378,54.984116 71.1588398,55.4875691 72.1421117,55.4875691 Z M72.1421117,53.0013812 C71.5547882,53.0013812 71.0862492,52.6781768 71.0862492,52.2058011 L71.0862492,52.1933702 C71.0862492,51.7582873 71.5415899,51.4412983 72.1421117,51.4412983 C72.7426335,51.4412983 73.1979742,51.7645028 73.1979742,52.1933702 L73.1979742,52.2058011 C73.1979742,52.6781768 72.7294352,53.0013812 72.1421117,53.0013812 Z M72.1421117,55.0587017 C71.3832106,55.0587017 70.934469,54.679558 70.934469,54.2444751 L70.934469,54.2320442 C70.934469,53.7472376 71.4689994,53.4053867 72.1421117,53.4053867 C72.8152241,53.4053867 73.3497545,53.7472376 73.3497545,54.2320442 L73.3497545,54.2444751 C73.3497545,54.6857735 72.9010129,55.0587017 72.1421117,55.0587017 Z M75.6396562,55.4254144 L77.7381829,51.4412983 L77.7381829,51.0745856 L74.6035912,51.0745856 L74.6035912,51.5220994 L77.1442603,51.5220994 L75.0589319,55.4254144 L75.6396562,55.4254144 Z M80.1006753,55.4875691 C81.0839472,55.4875691 81.8362492,54.9903315 81.8362492,54.2506906 L81.8362492,54.2382597 C81.8362492,53.7223757 81.4337017,53.3680939 80.885973,53.1754144 C81.3149171,52.9889503 81.6778699,52.6781768 81.6778699,52.1747238 L81.6778699,52.1622928 C81.6778699,51.4910221 80.9453653,51.0124309 80.1006753,51.0124309 C79.2559853,51.0124309 78.5234807,51.4910221 78.5234807,52.1622928 L78.5234807,52.1747238 C78.5234807,52.6781768 78.8864334,52.9889503 79.3153775,53.1754144 C78.7610497,53.3618785 78.3651013,53.7285912 78.3651013,54.2444751 L78.3651013,54.2569061 C78.3651013,54.984116 79.1174033,55.4875691 80.1006753,55.4875691 Z M80.1006753,53.0013812 C79.5133517,53.0013812 79.0448128,52.6781768 79.0448128,52.2058011 L79.0448128,52.1933702 C79.0448128,51.7582873 79.5001535,51.4412983 80.1006753,51.4412983 C80.7011971,51.4412983 81.1565378,51.7645028 81.1565378,52.1933702 L81.1565378,52.2058011 C81.1565378,52.6781768 80.6879988,53.0013812 80.1006753,53.0013812 Z M80.1006753,55.0587017 C79.3417741,55.0587017 78.8930325,54.679558 78.8930325,54.2444751 L78.8930325,54.2320442 C78.8930325,53.7472376 79.4275629,53.4053867 80.1006753,53.4053867 C80.7737876,53.4053867 81.308318,53.7472376 81.308318,54.2320442 L81.308318,54.2444751 C81.308318,54.6857735 80.8595764,55.0587017 80.1006753,55.0587017 Z M85.5383671,55.4254144 L85.5383671,54.3936464 L86.2510743,54.3936464 L86.2510743,53.9834254 L85.5383671,53.9834254 L85.5383671,51.0435083 L85.0764273,51.0435083 L82.4631676,54.0331492 L82.5951504,54.3936464 L85.0302333,54.3936464 L85.0302333,55.4254144 L85.5383671,55.4254144 Z M85.0302333,53.9834254 L83.0900859,53.9834254 L85.0302333,51.7396409 L85.0302333,53.9834254 Z M88.6069675,55.5 C89.570442,55.5 90.2567526,54.9219613 90.2567526,54.070442 L90.2567526,54.058011 C90.2567526,53.2251381 89.5572437,52.7279006 88.6597606,52.7279006 C88.2770104,52.7279006 88.019644,52.8087017 87.7490792,52.9205801 L87.8480663,51.5283149 L90.0521793,51.5283149 L90.0521793,51.0745856 L87.3927256,51.0745856 L87.2607428,53.1940608 L87.6104972,53.4116022 C87.881062,53.2748619 88.1912216,53.1629834 88.5805709,53.1629834 C89.2536832,53.1629834 89.7288214,53.5359116 89.7288214,54.0766575 L89.7288214,54.0890884 C89.7288214,54.6360497 89.2734807,55.0524862 88.6135666,55.0524862 C88.1450276,55.0524862 87.7028852,54.8225138 87.3003376,54.4558011 L86.9571823,54.8100829 C87.3729282,55.2016575 87.9470534,55.5 88.6069675,55.5 Z M92.8436157,55.5 C93.7806937,55.5 94.5,54.890884 94.5,54.0517956 L94.5,54.0393646 C94.5,53.2251381 93.7608963,52.7030387 92.903008,52.7030387 C92.3024862,52.7030387 91.8867403,52.9578729 91.5831799,53.3743094 L91.5831799,53.3121547 C91.5831799,52.3301105 92.0517188,51.4475138 92.9426028,51.4475138 C93.3649478,51.4475138 93.6883057,51.6029006 94.031461,51.8763812 L94.3350215,51.4972376 C93.9324739,51.1864641 93.5233272,51 92.9689994,51 C91.7613567,51 91.0486495,52.0379834 91.0486495,53.3618785 L91.0486495,53.3743094 C91.0486495,54.2631215 91.259822,54.7106354 91.6293738,55.0587017 C91.919736,55.3321823 92.3354819,55.5 92.8436157,55.5 Z M92.8502149,55.0649171 C92.1705034,55.0649171 91.682167,54.6422652 91.682167,54.0890884 L91.682167,54.0766575 C91.682167,53.5918508 92.1441068,53.1256906 92.8370166,53.1256906 C93.5035298,53.1256906 93.9654696,53.5234807 93.9654696,54.058011 L93.9654696,54.070442 C93.9654696,54.6236188 93.5299263,55.0649171 92.8502149,55.0649171 Z" id="12589878456" fill="#F0C164" fill-rule="nonzero"></path>
                <path d="M53.0112032,13.4254144 L53.0112032,9.04350829 L52.628453,9.04350829 L51.5,9.41022099 L51.6253837,9.80801105 L52.4964702,9.5531768 L52.4964702,13.4254144 L53.0112032,13.4254144 Z M57.2214549,13.4254144 L57.2214549,12.9779006 L54.7731737,12.9779006 L56.007213,11.9461326 C56.8189073,11.2810773 57.1752609,10.8895028 57.1752609,10.2555249 L57.1752609,10.2430939 C57.1752609,9.53453039 56.5747391,9.01243094 55.7432474,9.01243094 C54.9315531,9.01243094 54.4960098,9.35428177 54.080264,9.93853591 L54.4630141,10.1995856 C54.832566,9.71477901 55.1757213,9.45372928 55.7036525,9.45372928 C56.2051872,9.45372928 56.6341314,9.7769337 56.6341314,10.2866022 C56.6341314,10.7216851 56.3767649,11.0573204 55.6706568,11.6540055 L53.9944751,13.0462707 L53.9944751,13.4254144 L57.2214549,13.4254144 Z M59.6301412,13.5 C60.5936157,13.5 61.2799263,12.9219613 61.2799263,12.070442 L61.2799263,12.058011 C61.2799263,11.2251381 60.5804174,10.7279006 59.6829343,10.7279006 C59.3001842,10.7279006 59.0428177,10.8087017 58.7722529,10.9205801 L58.87124,9.52831492 L61.075353,9.52831492 L61.075353,9.07458564 L58.4158993,9.07458564 L58.2839165,11.1940608 L58.633671,11.4116022 C58.9042357,11.2748619 59.2143953,11.1629834 59.6037446,11.1629834 C60.276857,11.1629834 60.7519951,11.5359116 60.7519951,12.0766575 L60.7519951,12.0890884 C60.7519951,12.6360497 60.2966544,13.0524862 59.6367403,13.0524862 C59.1682014,13.0524862 58.7260589,12.8225138 58.3235114,12.4558011 L57.980356,12.8100829 C58.3961019,13.2016575 58.9702271,13.5 59.6301412,13.5 Z M63.7480049,13.4875691 C64.7312769,13.4875691 65.4835789,12.9903315 65.4835789,12.2506906 L65.4835789,12.2382597 C65.4835789,11.7223757 65.0810313,11.3680939 64.5333026,11.1754144 C64.9622468,10.9889503 65.3251995,10.6781768 65.3251995,10.1747238 L65.3251995,10.1622928 C65.3251995,9.4910221 64.5926949,9.01243094 63.7480049,9.01243094 C62.9033149,9.01243094 62.1708103,9.4910221 62.1708103,10.1622928 L62.1708103,10.1747238 C62.1708103,10.6781768 62.533763,10.9889503 62.9627072,11.1754144 C62.4083794,11.3618785 62.0124309,11.7285912 62.0124309,12.2444751 L62.0124309,12.2569061 C62.0124309,12.984116 62.764733,13.4875691 63.7480049,13.4875691 Z M63.7480049,11.0013812 C63.1606814,11.0013812 62.6921424,10.6781768 62.6921424,10.2058011 L62.6921424,10.1933702 C62.6921424,9.75828729 63.1474831,9.44129834 63.7480049,9.44129834 C64.3485267,9.44129834 64.8038674,9.76450276 64.8038674,10.1933702 L64.8038674,10.2058011 C64.8038674,10.6781768 64.3353284,11.0013812 63.7480049,11.0013812 Z M63.7480049,13.0587017 C62.9891037,13.0587017 62.5403622,12.679558 62.5403622,12.2444751 L62.5403622,12.2320442 C62.5403622,11.7472376 63.0748926,11.4053867 63.7480049,11.4053867 C64.4211172,11.4053867 64.9556476,11.7472376 64.9556476,12.2320442 L64.9556476,12.2444751 C64.9556476,12.6857735 64.5069061,13.0587017 63.7480049,13.0587017 Z M67.740485,13.5 C68.8821363,13.5 69.6608349,12.5241713 69.6608349,11.144337 L69.6608349,11.1319061 C69.6608349,10.2617403 69.4364641,9.7769337 69.0867096,9.44751381 C68.7897483,9.16781768 68.400399,9 67.8724678,9 C66.8891958,9 66.2094843,9.65262431 66.2094843,10.4792818 L66.2094843,10.4917127 C66.2094843,11.2748619 66.8693984,11.8404696 67.8196746,11.8404696 C68.4135973,11.8404696 68.8359423,11.5732044 69.1263045,11.1505525 L69.1263045,11.2375691 C69.1263045,12.176105 68.6445672,13.0524862 67.7536832,13.0524862 C67.3445365,13.0524862 66.9947821,12.8970994 66.6186311,12.586326 L66.3150706,12.9654696 C66.7044199,13.2700276 67.1399632,13.5 67.740485,13.5 Z M67.8790669,11.4178177 C67.2059546,11.4178177 66.7440147,11.0200276 66.7440147,10.4668508 L66.7440147,10.4544199 C66.7440147,9.91367403 67.1597606,9.43508287 67.8526703,9.43508287 C68.5455801,9.43508287 69.0273174,9.87016575 69.0273174,10.4233425 L69.0273174,10.4357735 C69.0273174,10.933011 68.585175,11.4178177 67.8790669,11.4178177 Z M72.1421117,13.4875691 C73.1253837,13.4875691 73.8776857,12.9903315 73.8776857,12.2506906 L73.8776857,12.2382597 C73.8776857,11.7223757 73.4751381,11.3680939 72.9274095,11.1754144 C73.3563536,10.9889503 73.7193063,10.6781768 73.7193063,10.1747238 L73.7193063,10.1622928 C73.7193063,9.4910221 72.9868017,9.01243094 72.1421117,9.01243094 C71.2974217,9.01243094 70.5649171,9.4910221 70.5649171,10.1622928 L70.5649171,10.1747238 C70.5649171,10.6781768 70.9278699,10.9889503 71.356814,11.1754144 C70.8024862,11.3618785 70.4065378,11.7285912 70.4065378,12.2444751 L70.4065378,12.2569061 C70.4065378,12.984116 71.1588398,13.4875691 72.1421117,13.4875691 Z M72.1421117,11.0013812 C71.5547882,11.0013812 71.0862492,10.6781768 71.0862492,10.2058011 L71.0862492,10.1933702 C71.0862492,9.75828729 71.5415899,9.44129834 72.1421117,9.44129834 C72.7426335,9.44129834 73.1979742,9.76450276 73.1979742,10.1933702 L73.1979742,10.2058011 C73.1979742,10.6781768 72.7294352,11.0013812 72.1421117,11.0013812 Z M72.1421117,13.0587017 C71.3832106,13.0587017 70.934469,12.679558 70.934469,12.2444751 L70.934469,12.2320442 C70.934469,11.7472376 71.4689994,11.4053867 72.1421117,11.4053867 C72.8152241,11.4053867 73.3497545,11.7472376 73.3497545,12.2320442 L73.3497545,12.2444751 C73.3497545,12.6857735 72.9010129,13.0587017 72.1421117,13.0587017 Z M75.6396562,13.4254144 L77.7381829,9.44129834 L77.7381829,9.07458564 L74.6035912,9.07458564 L74.6035912,9.52209945 L77.1442603,9.52209945 L75.0589319,13.4254144 L75.6396562,13.4254144 Z M80.1006753,13.4875691 C81.0839472,13.4875691 81.8362492,12.9903315 81.8362492,12.2506906 L81.8362492,12.2382597 C81.8362492,11.7223757 81.4337017,11.3680939 80.885973,11.1754144 C81.3149171,10.9889503 81.6778699,10.6781768 81.6778699,10.1747238 L81.6778699,10.1622928 C81.6778699,9.4910221 80.9453653,9.01243094 80.1006753,9.01243094 C79.2559853,9.01243094 78.5234807,9.4910221 78.5234807,10.1622928 L78.5234807,10.1747238 C78.5234807,10.6781768 78.8864334,10.9889503 79.3153775,11.1754144 C78.7610497,11.3618785 78.3651013,11.7285912 78.3651013,12.2444751 L78.3651013,12.2569061 C78.3651013,12.984116 79.1174033,13.4875691 80.1006753,13.4875691 Z M80.1006753,11.0013812 C79.5133517,11.0013812 79.0448128,10.6781768 79.0448128,10.2058011 L79.0448128,10.1933702 C79.0448128,9.75828729 79.5001535,9.44129834 80.1006753,9.44129834 C80.7011971,9.44129834 81.1565378,9.76450276 81.1565378,10.1933702 L81.1565378,10.2058011 C81.1565378,10.6781768 80.6879988,11.0013812 80.1006753,11.0013812 Z M80.1006753,13.0587017 C79.3417741,13.0587017 78.8930325,12.679558 78.8930325,12.2444751 L78.8930325,12.2320442 C78.8930325,11.7472376 79.4275629,11.4053867 80.1006753,11.4053867 C80.7737876,11.4053867 81.308318,11.7472376 81.308318,12.2320442 L81.308318,12.2444751 C81.308318,12.6857735 80.8595764,13.0587017 80.1006753,13.0587017 Z M85.5383671,13.4254144 L85.5383671,12.3936464 L86.2510743,12.3936464 L86.2510743,11.9834254 L85.5383671,11.9834254 L85.5383671,9.04350829 L85.0764273,9.04350829 L82.4631676,12.0331492 L82.5951504,12.3936464 L85.0302333,12.3936464 L85.0302333,13.4254144 L85.5383671,13.4254144 Z M85.0302333,11.9834254 L83.0900859,11.9834254 L85.0302333,9.73964088 L85.0302333,11.9834254 Z M88.6069675,13.5 C89.570442,13.5 90.2567526,12.9219613 90.2567526,12.070442 L90.2567526,12.058011 C90.2567526,11.2251381 89.5572437,10.7279006 88.6597606,10.7279006 C88.2770104,10.7279006 88.019644,10.8087017 87.7490792,10.9205801 L87.8480663,9.52831492 L90.0521793,9.52831492 L90.0521793,9.07458564 L87.3927256,9.07458564 L87.2607428,11.1940608 L87.6104972,11.4116022 C87.881062,11.2748619 88.1912216,11.1629834 88.5805709,11.1629834 C89.2536832,11.1629834 89.7288214,11.5359116 89.7288214,12.0766575 L89.7288214,12.0890884 C89.7288214,12.6360497 89.2734807,13.0524862 88.6135666,13.0524862 C88.1450276,13.0524862 87.7028852,12.8225138 87.3003376,12.4558011 L86.9571823,12.8100829 C87.3729282,13.2016575 87.9470534,13.5 88.6069675,13.5 Z M92.8436157,13.5 C93.7806937,13.5 94.5,12.890884 94.5,12.0517956 L94.5,12.0393646 C94.5,11.2251381 93.7608963,10.7030387 92.903008,10.7030387 C92.3024862,10.7030387 91.8867403,10.9578729 91.5831799,11.3743094 L91.5831799,11.3121547 C91.5831799,10.3301105 92.0517188,9.44751381 92.9426028,9.44751381 C93.3649478,9.44751381 93.6883057,9.60290055 94.031461,9.87638122 L94.3350215,9.49723757 C93.9324739,9.18646409 93.5233272,9 92.9689994,9 C91.7613567,9 91.0486495,10.0379834 91.0486495,11.3618785 L91.0486495,11.3743094 C91.0486495,12.2631215 91.259822,12.7106354 91.6293738,13.0587017 C91.919736,13.3321823 92.3354819,13.5 92.8436157,13.5 Z M92.8502149,13.0649171 C92.1705034,13.0649171 91.682167,12.6422652 91.682167,12.0890884 L91.682167,12.0766575 C91.682167,11.5918508 92.1441068,11.1256906 92.8370166,11.1256906 C93.5035298,11.1256906 93.9654696,11.5234807 93.9654696,12.058011 L93.9654696,12.070442 C93.9654696,12.6236188 93.5299263,13.0649171 92.8502149,13.0649171 Z" id="12589878456" fill="#F0C164" fill-rule="nonzero"></path>
                <line x1="39.1032609" y1="48.25" x2="105.396739" y2="48.25" id="Line-6" stroke="#FFD683" stroke-width="2" stroke-linecap="square"></line>
                <line x1="39.1032609" y1="17.25" x2="105.396739" y2="17.25" id="Line-6-Copy" stroke="#FFD683" stroke-width="2" stroke-linecap="square"></line>
                <line x1="29.25" y1="59.4" x2="29.25" y2="57.6" id="Line-5" stroke="#FFD683" stroke-width="1.5" stroke-linecap="square"></line>
                <line x1="29.25" y1="54.4" x2="29.25" y2="52.6" id="Line-5-Copy" stroke="#FFD683" stroke-width="1.5" stroke-linecap="square"></line>
                <line x1="29.25" y1="49.9" x2="29.25" y2="48.1" id="Line-5-Copy-2" stroke="#FFD683" stroke-width="1.5" stroke-linecap="square"></line>
                <line x1="29.25" y1="44.9" x2="29.25" y2="43.1" id="Line-5-Copy-3" stroke="#FFD683" stroke-width="1.5" stroke-linecap="square"></line>
                <line x1="29.25" y1="39.9" x2="29.25" y2="38.1" id="Line-5-Copy-4" stroke="#FFD683" stroke-width="1.5" stroke-linecap="square"></line>
                <line x1="29.25" y1="35.4" x2="29.25" y2="33.6" id="Line-5-Copy-5" stroke="#FFD683" stroke-width="1.5" stroke-linecap="square"></line>
                <line x1="29.25" y1="30.4" x2="29.25" y2="28.6" id="Line-5-Copy-6" stroke="#FFD683" stroke-width="1.5" stroke-linecap="square"></line>
                <line x1="29.25" y1="25.9" x2="29.25" y2="24.1" id="Line-5-Copy-7" stroke="#FFD683" stroke-width="1.5" stroke-linecap="square"></line>
                <line x1="29.25" y1="20.9" x2="29.25" y2="19.1" id="Line-5-Copy-8" stroke="#FFD683" stroke-width="1.5" stroke-linecap="square"></line>
                <line x1="29.25" y1="16.4" x2="29.25" y2="14.6" id="Line-5-Copy-9" stroke="#FFD683" stroke-width="1.5" stroke-linecap="square"></line>
                <line x1="29.25" y1="11.9" x2="29.25" y2="10.1" id="Line-5-Copy-10" stroke="#FFD683" stroke-width="1.5" stroke-linecap="square"></line>
                <line x1="29.25" y1="6.4" x2="29.25" y2="4.6" id="Line-5-Copy-11" stroke="#FFD683" stroke-width="1.5" stroke-linecap="square"></line>
                <line x1="115.25" y1="59.4" x2="115.25" y2="57.6" id="Line-5-Copy-12" stroke="#FFD683" stroke-width="1.5" stroke-linecap="square"></line>
                <line x1="115.25" y1="54.4" x2="115.25" y2="52.6" id="Line-5-Copy-13" stroke="#FFD683" stroke-width="1.5" stroke-linecap="square"></line>
                <line x1="115.25" y1="49.9" x2="115.25" y2="48.1" id="Line-5-Copy-14" stroke="#FFD683" stroke-width="1.5" stroke-linecap="square"></line>
                <line x1="115.25" y1="44.9" x2="115.25" y2="43.1" id="Line-5-Copy-15" stroke="#FFD683" stroke-width="1.5" stroke-linecap="square"></line>
                <line x1="115.25" y1="39.9" x2="115.25" y2="38.1" id="Line-5-Copy-16" stroke="#FFD683" stroke-width="1.5" stroke-linecap="square"></line>
                <line x1="115.25" y1="35.4" x2="115.25" y2="33.6" id="Line-5-Copy-17" stroke="#FFD683" stroke-width="1.5" stroke-linecap="square"></line>
                <line x1="115.25" y1="30.4" x2="115.25" y2="28.6" id="Line-5-Copy-18" stroke="#FFD683" stroke-width="1.5" stroke-linecap="square"></line>
                <line x1="115.25" y1="25.9" x2="115.25" y2="24.1" id="Line-5-Copy-19" stroke="#FFD683" stroke-width="1.5" stroke-linecap="square"></line>
                <line x1="115.25" y1="20.9" x2="115.25" y2="19.1" id="Line-5-Copy-20" stroke="#FFD683" stroke-width="1.5" stroke-linecap="square"></line>
                <line x1="115.25" y1="16.4" x2="115.25" y2="14.6" id="Line-5-Copy-21" stroke="#FFD683" stroke-width="1.5" stroke-linecap="square"></line>
                <line x1="115.25" y1="11.9" x2="115.25" y2="10.1" id="Line-5-Copy-22" stroke="#FFD683" stroke-width="1.5" stroke-linecap="square"></line>
                <line x1="115.25" y1="6.4" x2="115.25" y2="4.6" id="Line-5-Copy-23" stroke="#FFD683" stroke-width="1.5" stroke-linecap="square"></line>
            </g>
        </g>
    </g>
</svg>