<?xml version="1.0" encoding="UTF-8"?>
<svg width="77px" height="51px" viewBox="0 0 77 51" version="1.1" xmlns="http://www.w3.org/2000/svg" xmlns:xlink="http://www.w3.org/1999/xlink">
    <title>Group 6</title>
    <defs>
        <filter x="-5.6%" y="-8.9%" width="111.3%" height="117.8%" filterUnits="objectBoundingBox" id="filter-1">
            <feOffset dx="2" dy="2" in="SourceAlpha" result="shadowOffsetOuter1"></feOffset>
            <feColorMatrix values="0 0 0 0 0.537477355   0 0 0 0 0.241562723   0 0 0 0 0.171771536  0 0 0 1 0" type="matrix" in="shadowOffsetOuter1" result="shadowMatrixOuter1"></feColorMatrix>
            <feMerge>
                <feMergeNode in="shadowMatrixOuter1"></feMergeNode>
                <feMergeNode in="SourceGraphic"></feMergeNode>
            </feMerge>
        </filter>
        <polygon id="path-2" points="0 0.15820826 33.8936639 0.15820826 33.8936639 44 0 44"></polygon>
    </defs>
    <g id="Page-1" stroke="none" stroke-width="1" fill="none" fill-rule="evenodd">
        <g id="Mobile" transform="translate(-161.000000, -7.000000)">
            <g id="Group-6" filter="url(#filter-1)" transform="translate(164.000000, 10.000000)">
                <path d="M37.0160496,1 C37.0160496,1.50754111 37.0160496,1.79068764 37.0160496,2.07383417 C37.0173908,10.9732396 37.0693171,19.8728345 37.0005292,28.7716714 C36.9616324,33.8112627 39.06819,37.7521924 42.9480958,40.8215084 C46.8475459,43.9063652 51.3325553,45.2843829 56.3347195,44.9513919 C60.3916727,44.6813225 63.9887626,43.3307855 66.9092784,40.4669119 C69.3128311,38.1098212 70.5824373,35.2124021 70.9108564,31.8921584 C71.2181984,28.7822846 70.7483713,25.8073508 69.2275647,23.0547268 C67.4605396,19.8569146 64.7684226,17.812536 61.0841503,17.3262214 C58.1205223,16.9346681 55.2703273,17.3840258 52.8671578,19.3470993 C50.3965417,21.3651342 49.8784289,24.4278169 50.8571715,26.9763252 C51.4155223,26.0133617 52.104551,25.2186941 53.1007301,24.7185444 C56.2996549,23.1130997 60.4807712,25.4753075 60.759755,28.9975821 C60.9937105,31.9503418 59.171885,33.8372273 57.5175264,34.5424403 C55.3297263,35.4754593 52.7265162,34.919969 51.0062439,33.1310666 C49.6607602,31.7322015 48.9508461,30.0568231 48.936667,28.1307065 C48.8975786,22.7571766 48.8833995,17.3832677 48.8713281,12.0095483 C48.8680707,10.6121993 48.7362432,9.23493972 48.3419103,7.89027798 C47.4424941,4.82361531 45.336703,2.93047562 42.302371,2.07970936 C40.6135226,1.6062823 38.8576109,1.36748402 37.0160496,1" id="Fill-1" fill="#C45A41"></path>
                <g id="Group-5">
                    <mask id="mask-3" fill="white">
                        <use xlink:href="#path-2"></use>
                    </mask>
                    <g id="Clip-4"></g>
                    <path d="M0.0159685393,44.0000944 C0.0159685393,43.4941888 0.0159685393,43.2120601 0.0159685393,42.9299313 C0.017305618,34.0627039 0.0690696629,25.1949099 0.000496629213,16.3282489 C-0.0382786517,11.3065837 2.06169888,7.37981974 5.92948539,4.32153648 C9.81656404,1.24795708 14.2877551,-0.125296137 19.2742944,0.206686695 C23.3185753,0.475785408 26.9042382,1.82146781 29.8156315,4.67504721 C32.2116764,7.02347639 33.4775079,9.91048069 33.8047101,13.2187897 C34.1112831,16.317485 33.6429236,19.2819142 32.1266764,22.0244549 C30.3651708,25.2109614 27.6814629,27.2478026 24.0088899,27.7325579 C21.0543281,28.1227039 18.213036,27.6749614 15.817564,25.7189442 C13.3546652,23.7079742 12.8379798,20.6563004 13.8138562,18.1171416 C14.3704629,19.0764549 15.0573393,19.8682661 16.0504067,20.366618 C19.2393393,21.9664807 23.4073955,19.6125751 23.6855079,16.1031502 C23.9187326,13.1610043 22.1024067,11.2809013 20.4534067,10.5780343 C18.2724404,9.64855794 15.6773618,10.2020515 13.9622719,11.9845236 C12.621182,13.3781717 11.9134854,15.0475279 11.8993506,16.9669099 C11.8601933,22.3211245 11.8462494,27.6757167 11.8342157,33.0301202 C11.8309685,34.4224464 11.6995528,35.7947554 11.3064517,37.1343948 C10.4096539,40.1902232 8.31063146,42.0763691 5.28577753,42.9240773 C3.60220449,43.3958026 1.85158652,43.6337425 0.0159685393,44.0000944" id="Fill-3" fill="#C45A41" mask="url(#mask-3)"></path>
                </g>
            </g>
        </g>
    </g>
</svg>